<?xml version="1.0" encoding="utf-8"?>
<!-- Generator: Adobe Illustrator 24.0.0, SVG Export Plug-In . SVG Version: 6.00 Build 0)  -->
<svg version="1.1" id="Layer_1" xmlns="http://www.w3.org/2000/svg" xmlns:xlink="http://www.w3.org/1999/xlink" x="0px" y="0px"
	 viewBox="0 0 566.93 566.93" style="enable-background:new 0 0 566.93 566.93;" xml:space="preserve">
<style type="text/css">
	.st0{fill:#E9EFF2;}
	.st1{fill:#3E5A9E;}
	.st2{fill:#9ACCEE;}
	.st3{fill:#3F5A9E;}
</style>
<path class="st0" d="M1.42,283.46c0,155.83,126.22,282.05,282.05,282.05s282.05-126.22,282.05-282.05S439.29,1.42,283.46,1.42
	S1.42,127.64,1.42,283.46z"/>
<path class="st1" d="M128.4,256.63c2.52,3.28,4.91,6.55,9.07,11.97c0-11.59,0.13-20.53,0-29.48c-0.13-8.31-0.63-16,10.33-19.27
	c3.15-0.88,5.16-7.56,6.8-11.97c10.58-27.84,24.82-53.29,47.36-73.06c50.64-44.22,102.29-46.11,154.44-3.91
	c18.77,15.12,31.11,38.29,45.85,58.2c7.31,9.83,14.74,19.9,19.65,30.99c3.4,7.68,4.16,17.38,3.02,25.82
	c-1.01,6.68-6.68,12.72-11.09,20.53c20.28-4.79,18.77-24.56,27.71-35.9c15.87,6.42,19.78,15.87,10.2,28.09
	c-8.19,10.58-18.14,19.65-27.71,29.85c8.69,16.88,0.5,49-21.54,69.54c-14.86,13.86-32.37,24.82-50.26,38.17
	c1.39,30.74-34.77,69.16-68.02,68.53c-33-0.63-70.04-39.93-67.02-70.42c-12.35-8.06-24.82-15.49-36.66-23.81
	c-22.04-15.49-32.5-38.42-39.93-63.24c-1.13-4.03-3.53-7.68-5.29-11.46C85.19,236.98,120.59,253.23,128.4,256.63z"/>
<path class="st2" d="M278.8,334.48c43.71-1.76,78.86-19.15,107.07-50.51c17.13-19.02,23.05-42.45,14.23-66.76
	c-9.95-27.71-23.93-53.79-46.99-73.19c-29.23-24.44-61.98-39.05-100.52-24.94c-51.27,18.77-78.61,59.21-88.68,110.1
	c-7.43,37.79,15.75,73.69,46.36,86.79C231.69,325.16,255.88,328.56,278.8,334.48z"/>
<path class="st2" d="M291.02,387.89c17.26-2.39,32.37-3.65,47.11-6.8c35.27-7.43,58.58-29.35,69.91-63.11
	c1.89-5.54,0.13-14.49-3.53-18.64c-2.14-2.52-13.35-0.88-17.13,2.52c-27.34,24.69-58.32,40.81-96.37,43.08V387.89L291.02,387.89z
	 M277.29,346.95c-40.94-11.59-85.41-8.57-118.29-38.92c6.05,49.88,49.51,79.24,118.29,77.6V346.95z M238.87,400.49
	c-1.64-2.02-9.95,4.53-8.94,8.94c4.79,21.41,35.02,44.59,55.55,43.71c20.79-0.88,47.62-24.31,52.53-45.48
	c1.89-8.06,0.76-12.6-9.2-11.97C298.83,397.72,268.85,398.98,238.87,400.49L238.87,400.49z"/>
<path class="st3" d="M207.13,237.49c-1.39,0.38-2.27,1.76-1.76,3.28c0.38,1.39,1.76,2.27,3.28,1.76h0.13
	c1.39-0.38,2.14-1.89,1.76-3.28C209.9,237.86,208.51,237.11,207.13,237.49z M217.33,294.17c-1.26,0.38-2.02,1.51-1.64,2.65
	c0.38,1.01,1.64,1.64,2.77,1.26c1.26-0.38,2.02-1.51,1.64-2.65C219.85,294.42,218.59,293.79,217.33,294.17z M202.72,286.36
	c-1.01,0.25-1.51,1.39-1.13,2.39c0.25,1.01,1.39,1.64,2.27,1.39c1.01-0.25,1.51-1.39,1.13-2.39
	C204.73,286.74,203.73,286.11,202.72,286.36z M211.66,294.8c-0.63,0.25-1.01,0.88-0.88,1.39c0.13,0.63,0.88,0.88,1.51,0.76
	c0.63-0.25,1.01-0.88,0.88-1.39C212.92,294.93,212.29,294.55,211.66,294.8z M193.52,293.04c-1.64,0.5-2.65,2.14-2.14,3.78
	c0.5,1.64,2.14,2.52,3.91,2.02c1.64-0.5,2.65-2.14,2.14-3.78C196.92,293.42,195.16,292.53,193.52,293.04z"/>
<path class="st3" d="M242.4,300.34c0,1.46,1.18,2.65,2.64,2.65c1.46,0,2.65-1.18,2.65-2.64c0,0,0,0,0-0.01
	c0-1.46-1.18-2.65-2.64-2.65C243.59,297.69,242.4,298.88,242.4,300.34C242.4,300.34,242.4,300.34,242.4,300.34z"/>
<path class="st3" d="M266.33,290.9c-1.26,0.38-2.02,1.51-1.64,2.65c0.38,1.13,1.64,1.64,2.77,1.26c1.26-0.38,2.02-1.51,1.64-2.65
	C268.73,291.15,267.47,290.52,266.33,290.9z M251.72,283.09c-1.01,0.25-1.51,1.39-1.13,2.39c0.25,1.01,1.39,1.64,2.27,1.39
	c1.01-0.25,1.51-1.39,1.13-2.39C253.74,283.46,252.73,282.83,251.72,283.09z M260.66,291.4c-0.63,0.25-1.01,0.88-0.88,1.39
	c0.13,0.63,0.88,0.88,1.51,0.76c0.63-0.25,1.01-0.88,0.88-1.39C261.92,291.53,261.29,291.27,260.66,291.4z M242.4,289.76
	c-1.64,0.5-2.65,2.14-2.14,3.78c0.5,1.64,2.14,2.52,3.91,2.02s2.65-2.14,2.14-3.78C245.8,290.14,244.16,289.26,242.4,289.76z
	 M226.65,246.05c-1.39,0.38-2.14,1.89-1.76,3.28s1.89,2.14,3.28,1.76s2.14-1.89,1.76-3.28S228.04,245.67,226.65,246.05z"/>
<path class="st3" d="M236.33,289.38c1.2-0.36,1.92-1.51,1.6-2.58c-0.32-1.07-1.54-1.65-2.75-1.29c-1.2,0.36-1.92,1.51-1.6,2.58
	C233.9,289.16,235.13,289.74,236.33,289.38z"/>
<path class="st3" d="M226.12,299.11c0.93-0.27,1.44-1.36,1.13-2.43c-0.31-1.07-1.32-1.71-2.26-1.44c0,0,0,0-0.01,0
	c-0.93,0.27-1.44,1.36-1.13,2.43S225.18,299.39,226.12,299.11C226.11,299.11,226.12,299.11,226.12,299.11z"/>
<path class="st3" d="M229.42,286.11c-0.63,0.25-1.01,0.88-0.88,1.39c0.13,0.63,0.88,0.88,1.51,0.76c0.63-0.25,1.01-0.88,0.88-1.39
	C230.81,286.24,230.18,285.86,229.42,286.11z"/>
<path class="st3" d="M255.02,248.42c1.67-0.49,2.64-2.19,2.17-3.79c-0.47-1.6-2.21-2.5-3.87-2.01c0,0,0,0-0.01,0
	c-1.67,0.49-2.64,2.19-2.17,3.79C251.61,248.01,253.35,248.91,255.02,248.42C255.02,248.42,255.02,248.42,255.02,248.42z"/>
<path class="st3" d="M205.24,304.5c0,1.46,1.18,2.65,2.64,2.65c1.46,0,2.65-1.18,2.65-2.64c0,0,0,0,0-0.01
	c0-1.46-1.18-2.65-2.64-2.65C206.42,301.85,205.24,303.03,205.24,304.5C205.24,304.5,205.24,304.5,205.24,304.5z"/>
<path class="st3" d="M245.17,307.02c-1.26,0.38-2.02,1.51-1.64,2.65c0.38,1.01,1.64,1.64,2.77,1.26c1.13-0.38,2.02-1.51,1.64-2.65
	C247.56,307.27,246.3,306.64,245.17,307.02z M230.56,299.21c-1.01,0.25-1.51,1.39-1.13,2.39c0.25,1.01,1.39,1.64,2.27,1.39
	c1.01-0.25,1.51-1.39,1.13-2.39C232.57,299.59,231.56,298.96,230.56,299.21z M239.5,307.65c-0.63,0.25-1.01,0.88-0.88,1.39
	c0.13,0.63,0.88,0.88,1.51,0.76c0.63-0.25,1.01-0.88,0.88-1.39C240.76,307.78,240.13,307.4,239.5,307.65z M221.36,305.89
	c-1.64,0.5-2.65,2.14-2.14,3.78c0.5,1.64,2.14,2.52,3.91,2.02c1.64-0.5,2.65-2.14,2.14-3.78C224.64,306.27,223,305.38,221.36,305.89
	z M283.84,307.15c-1.26,0.38-2.02,1.51-1.64,2.65c0.38,1.13,1.64,1.64,2.77,1.26c1.26-0.38,2.02-1.51,1.64-2.65
	C286.36,307.27,285.1,306.77,283.84,307.15L283.84,307.15z M273.89,290.77c-1.01,0.25-1.51,1.39-1.13,2.39
	c0.25,1.01,1.39,1.64,2.27,1.39c1.01-0.25,1.51-1.39,1.13-2.39C275.91,291.15,274.9,290.52,273.89,290.77z M282.71,299.21
	c-0.63,0.25-1.01,0.88-0.88,1.39c0.13,0.63,0.88,0.88,1.51,0.76c0.63-0.25,1.01-0.88,0.88-1.39
	C284.09,299.21,283.46,298.96,282.71,299.21z M264.57,297.45c-1.64,0.5-2.65,2.14-2.14,3.78s2.14,2.52,3.91,2.02
	c1.76-0.5,2.65-2.14,2.14-3.78C267.97,297.83,266.21,296.94,264.57,297.45z M229.3,309.67c-1.39,0.5-2.14,1.89-1.64,3.28
	c0.38,1.26,1.76,2.02,3.15,1.64c1.39-0.38,2.14-1.89,1.76-3.28C232.07,310.04,230.68,309.29,229.3,309.67z M267.21,314.71
	c-1.26,0.38-2.02,1.51-1.64,2.65c0.38,1.01,1.64,1.64,2.77,1.26c1.13-0.38,2.02-1.51,1.64-2.65
	C269.73,314.96,268.47,314.33,267.21,314.71z M252.73,306.9c-1.01,0.25-1.51,1.39-1.13,2.39c0.25,1.01,1.39,1.64,2.27,1.39
	c1.01-0.25,1.51-1.39,1.13-2.39C254.62,307.27,253.61,306.64,252.73,306.9z M261.55,315.34c-0.63,0.25-1.01,0.88-0.88,1.39
	c0.13,0.63,0.88,0.88,1.51,0.76c0.63-0.25,1.01-0.88,0.88-1.39S262.18,315.08,261.55,315.34z"/>
<path class="st3" d="M245.12,319.37c1.67-0.49,2.64-2.19,2.17-3.79c-0.47-1.6-2.21-2.5-3.87-2.01c0,0,0,0-0.01,0
	c-1.67,0.49-2.64,2.19-2.17,3.79C241.72,318.96,243.45,319.86,245.12,319.37C245.12,319.37,245.12,319.37,245.12,319.37z"/>
<path class="st3" d="M336.89,243.57c0.66-1.3,0.29-2.82-0.82-3.39c-1.12-0.57-2.56,0.03-3.22,1.33l0,0
	c-0.66,1.3-0.29,2.82,0.82,3.39C334.79,245.47,336.23,244.87,336.89,243.57z"/>
<path class="st3" d="M342.29,294.55c-0.5,1.01-0.13,2.27,0.88,2.77c1.01,0.5,2.27,0.13,2.77-0.88c0.5-1.01,0.13-2.27-0.88-2.77
	C344.06,293.16,342.92,293.54,342.29,294.55z M357.28,289.01c-0.5,1.01-0.25,2.14,0.5,2.52c0.76,0.38,1.76-0.13,2.27-1.01
	c0.5-1.01,0.25-2.14-0.5-2.52C358.79,287.5,357.66,288,357.28,289.01z M348.47,295.43c-0.25,0.5-0.13,1.13,0.5,1.51
	c0.5,0.25,1.13,0,1.51-0.5c0.25-0.5,0.13-1.26-0.5-1.51C349.35,294.68,348.72,294.8,348.47,295.43z M348.72,241.26
	c-0.76,1.51-0.25,3.28,1.13,3.91s3.02,0,3.78-1.51s0.25-3.28-1.13-3.91C351.24,239.12,349.47,239.88,348.72,241.26z M317.35,294.93
	c-0.63,1.26-0.25,2.77,0.88,3.4c1.13,0.63,2.52,0,3.28-1.26c0.63-1.26,0.25-2.77-0.88-3.4
	C319.49,293.04,317.98,293.67,317.35,294.93z M300.09,284.98c-0.5,1.01-0.13,2.27,0.88,2.77c1.01,0.5,2.27,0.13,2.77-0.88
	c0.5-1.01,0-2.27-1.01-2.77C301.73,283.72,300.6,284.09,300.09,284.98L300.09,284.98z"/>
<path class="st3" d="M317.75,280.96c0.51-0.99,0.27-2.13-0.54-2.54s-1.87,0.05-2.38,1.05c0,0,0,0.01-0.01,0.01
	c-0.51,0.99-0.27,2.13,0.54,2.54c0.8,0.41,1.87-0.05,2.38-1.05C317.75,280.97,317.75,280.96,317.75,280.96z"/>
<path class="st3" d="M306.14,285.98c-0.25,0.5-0.13,1.26,0.5,1.51c0.5,0.25,1.13,0,1.51-0.5c0.25-0.5,0.13-1.26-0.5-1.51
	C307.15,285.1,306.52,285.35,306.14,285.98z M320.12,287.5c-0.76,1.51-0.25,3.28,1.13,3.91c1.39,0.63,3.02,0,3.78-1.51
	c0.76-1.51,0.25-3.28-1.13-3.91C322.64,285.35,320.88,286.11,320.12,287.5z M362.45,284.22c-0.63,1.26-0.25,2.77,0.88,3.4
	c1.13,0.63,2.52,0,3.28-1.26c0.63-1.26,0.25-2.77-0.88-3.4C364.59,282.33,363.08,282.96,362.45,284.22z M328.56,283.84
	c-0.5,1.01-0.13,2.27,0.88,2.77c1.01,0.5,2.27,0.13,2.77-0.88c0.5-1.01,0.13-2.27-0.88-2.77
	C330.33,282.46,329.07,282.83,328.56,283.84z"/>
<path class="st3" d="M346.27,279.71c0.51-0.99,0.26-2.13-0.54-2.54c-0.81-0.41-1.87,0.06-2.37,1.05c0,0,0,0,0,0.01
	c-0.51,0.99-0.26,2.13,0.54,2.54C344.7,281.18,345.77,280.71,346.27,279.71C346.27,279.72,346.27,279.72,346.27,279.71z"/>
<path class="st3" d="M334.61,284.72c-0.25,0.5-0.13,1.26,0.5,1.51s1.13,0,1.51-0.5c0.25-0.5,0.13-1.26-0.5-1.51
	C335.62,283.97,334.99,284.22,334.61,284.72z M348.59,286.36c-0.76,1.51-0.25,3.28,1.13,3.91s3.02,0,3.78-1.51s0.25-3.28-1.13-3.91
	C351.11,284.22,349.35,284.85,348.59,286.36z M349.1,303.75c-0.63,1.26-0.25,2.77,0.88,3.4c1.13,0.63,2.52,0,3.28-1.26
	c0.63-1.26,0.25-2.77-0.88-3.4C351.24,301.86,349.72,302.49,349.1,303.75z M315.21,303.37c-0.5,1.01-0.13,2.27,0.88,2.77
	c1.01,0.5,2.27,0.13,2.77-0.88c0.5-1.01,0.13-2.27-0.88-2.77C316.97,301.98,315.71,302.36,315.21,303.37z M330.07,297.83
	c-0.5,1.01-0.25,2.14,0.5,2.52s1.76-0.13,2.27-1.01c0.5-1.01,0.25-2.14-0.5-2.52S330.58,296.82,330.07,297.83z M321.38,304.25
	c-0.25,0.5-0.13,1.26,0.5,1.51c0.5,0.25,1.26,0,1.51-0.5s0.13-1.26-0.5-1.51S321.63,303.75,321.38,304.25z M335.36,305.89
	c-0.76,1.51-0.25,3.28,1.13,3.91s3.02,0,3.78-1.51s0.25-3.28-1.13-3.91C337.76,303.75,335.99,304.38,335.36,305.89z"/>
<path class="st3" d="M316.94,292.13c0.66-1.3,0.3-2.82-0.82-3.39c-1.12-0.57-2.56,0.02-3.22,1.32c0,0,0,0.01,0,0.01
	c-0.66,1.3-0.3,2.82,0.82,3.39C314.83,294.03,316.27,293.44,316.94,292.13C316.94,292.14,316.94,292.13,316.94,292.13z"/>
<path class="st3" d="M278.93,289.64c-0.5,1.01-0.13,2.27,0.88,2.77c1.01,0.5,2.27,0.13,2.77-0.88c0.5-1.01,0.13-2.27-0.88-2.77
	C280.69,288.25,279.43,288.63,278.93,289.64z M293.79,284.09c-0.5,1.01-0.25,2.14,0.5,2.52s1.76-0.13,2.27-1.01
	c0.5-1.01,0.25-2.14-0.5-2.52C295.43,282.71,294.3,283.09,293.79,284.09z M285.1,290.52c-0.25,0.5-0.13,1.13,0.5,1.51
	c0.5,0.25,1.13,0,1.51-0.5c0.25-0.5,0.13-1.26-0.5-1.51C286.11,289.76,285.35,290.02,285.1,290.52z M299.08,292.16
	c-0.76,1.51-0.25,3.28,1.13,3.91s3.02,0,3.78-1.51s0.25-3.28-1.13-3.91C301.48,290.02,299.84,290.64,299.08,292.16z M328.06,308.41
	c-0.63,1.26-0.25,2.77,0.88,3.4c1.13,0.63,2.52,0,3.28-1.26c0.63-1.26,0.25-2.77-0.88-3.4C330.2,306.52,328.69,307.15,328.06,308.41
	z M294.17,308.03c-0.5,1.01-0.13,2.27,0.88,2.77c1.01,0.5,2.27,0.13,2.77-0.88c0.5-1.01,0.13-2.27-0.88-2.77
	C295.94,306.64,294.68,307.02,294.17,308.03z M309.04,302.49c-0.5,1.01-0.25,2.14,0.5,2.52s1.76-0.13,2.27-1.01
	c0.5-1.01,0.25-2.14-0.5-2.52C310.55,300.97,309.54,301.48,309.04,302.49z M300.34,308.91c-0.25,0.5-0.13,1.13,0.5,1.51
	c0.5,0.25,1.26,0,1.51-0.5s0.13-1.13-0.5-1.51C301.23,308.15,300.6,308.28,300.34,308.91z M314.2,310.55
	c-0.76,1.51-0.25,3.28,1.13,3.91s3.02,0,3.78-1.51s0.25-3.28-1.13-3.91C316.72,308.41,314.96,309.04,314.2,310.55z M213.17,228.54
	c-1.39-0.38-2.14-1.89-1.76-3.28s1.76-2.14,3.15-1.76s2.14,1.89,1.76,3.28S214.56,228.92,213.17,228.54z M223.25,170.6
	c-1.26-0.38-2.02-1.51-1.64-2.65c0.38-1.13,1.64-1.64,2.77-1.26c1.13,0.38,2.02,1.51,1.64,2.65
	C225.77,170.47,224.51,170.97,223.25,170.6z M208.76,178.66c-1.01-0.25-1.51-1.39-1.13-2.52c0.25-1.13,1.39-1.76,2.27-1.39
	c1.01,0.25,1.51,1.39,1.13,2.52C210.65,178.28,209.65,178.91,208.76,178.66z M217.58,170.09c-0.63-0.25-1.01-0.88-0.88-1.39
	c0.13-0.63,0.88-0.88,1.51-0.76c0.63,0.25,1.01,0.88,0.88,1.39C218.97,169.97,218.21,170.22,217.58,170.09z M199.44,171.85
	c-1.64-0.5-2.65-2.27-2.14-3.91c0.5-1.64,2.14-2.52,3.91-2.02s2.65,2.27,2.14,3.91C202.84,171.35,201.08,172.36,199.44,171.85z
	 M250.33,166.94c-1.39-0.38-2.14-1.89-1.76-3.28s1.89-2.14,3.28-1.76s2.14,1.89,1.76,3.28
	C253.11,166.56,251.72,167.32,250.33,166.94z M272.25,174c-1.26-0.38-2.02-1.51-1.64-2.65c0.38-1.13,1.64-1.64,2.77-1.26
	c1.26,0.38,2.02,1.51,1.64,2.65C274.77,173.87,273.51,174.37,272.25,174z M257.64,182.06c-1.01-0.25-1.51-1.39-1.13-2.52
	c0.25-1.13,1.39-1.76,2.27-1.39c1.01,0.25,1.51,1.39,1.13,2.52C259.66,181.68,258.65,182.31,257.64,182.06z M266.58,173.49
	c-0.63-0.25-1.01-0.88-0.88-1.39c0.13-0.63,0.88-0.88,1.51-0.76c0.63,0.25,1.01,0.88,0.88,1.39
	C267.84,173.37,267.21,173.62,266.58,173.49z M248.44,175.26c-1.64-0.5-2.65-2.27-2.14-3.91c0.5-1.64,2.14-2.52,3.91-2.02
	s2.65,2.27,2.14,3.91C251.85,174.75,250.08,175.76,248.44,175.26z M232.57,219.72c-1.39-0.38-2.14-1.89-1.76-3.28
	s1.76-2.14,3.28-1.76c1.39,0.38,2.14,1.89,1.76,3.28S234.08,220.23,232.57,219.72C232.7,219.85,232.7,219.85,232.57,219.72z
	 M241.14,179.54c-1.26-0.38-2.02-1.51-1.64-2.65c0.38-1.13,1.64-1.64,2.77-1.26c1.26,0.38,2.02,1.51,1.64,2.65
	C243.66,179.29,242.4,179.92,241.14,179.54z M230.94,169.46c-1.01-0.25-1.51-1.39-1.13-2.52c0.25-1.13,1.39-1.76,2.27-1.39
	c1.01,0.25,1.51,1.39,1.13,2.52C232.95,169.21,231.94,169.84,230.94,169.46z M235.47,178.91c-0.63-0.25-1.01-0.88-0.88-1.39
	c0.13-0.63,0.88-0.88,1.51-0.76c0.63,0.25,1.01,0.88,0.88,1.39C236.73,178.78,236.1,179.16,235.47,178.91z M259.28,223.25
	c-1.64-0.5-2.65-2.27-2.14-3.91c0.5-1.64,2.14-2.52,3.91-2.02c1.64,0.5,2.65,2.27,2.14,3.91
	C262.55,222.87,260.92,223.75,259.28,223.25z M213.17,162.66c-1.39-0.38-2.14-1.89-1.76-3.28s1.89-2.14,3.28-1.76
	s2.14,1.89,1.76,3.28C215.94,162.28,214.56,163.16,213.17,162.66z M251.09,157.62c-1.26-0.38-2.02-1.51-1.64-2.65
	c0.38-1.13,1.64-1.64,2.77-1.26c1.26,0.38,2.02,1.51,1.64,2.65C253.61,157.37,252.35,157.87,251.09,157.62z M236.48,165.56
	c-1.01-0.25-1.51-1.39-1.13-2.52c0.25-1.13,1.39-1.76,2.27-1.39c1.01,0.25,1.51,1.39,1.13,2.52
	C238.49,165.18,237.49,165.81,236.48,165.56z M245.42,156.99c-0.63-0.25-1.01-0.88-0.88-1.39c0.13-0.63,0.88-0.88,1.51-0.76
	c0.63,0.25,1.01,0.88,0.88,1.39C246.68,156.86,246.05,157.24,245.42,156.99z M227.28,158.75c-1.64-0.5-2.65-2.27-2.14-3.91
	c0.5-1.64,2.14-2.52,3.91-2.02c1.64,0.5,2.65,2.27,2.14,3.91C230.68,158.38,228.92,159.26,227.28,158.75z M256.38,171.35
	c-1.39-0.38-2.14-1.89-1.76-3.28s1.76-2.14,3.15-1.76s2.14,1.89,1.76,3.28C259.28,170.97,257.89,171.73,256.38,171.35
	C256.51,171.35,256.38,171.35,256.38,171.35z M289.76,157.49c-1.26-0.38-2.02-1.51-1.64-2.65c0.38-1.13,1.64-1.64,2.77-1.26
	c1.26,0.38,2.02,1.51,1.64,2.65C292.28,157.24,291.02,157.87,289.76,157.49z M279.81,174.12c-1.01-0.25-1.51-1.39-1.13-2.52
	c0.25-1.13,1.39-1.76,2.27-1.39c1.01,0.25,1.51,1.39,1.13,2.52C281.83,173.74,280.82,174.5,279.81,174.12z M288.76,165.56
	c-0.63-0.25-1.01-0.88-0.88-1.39c0.13-0.63,0.88-0.88,1.51-0.76c0.63,0.25,1.01,0.88,0.88,1.39
	C290.02,165.43,289.39,165.81,288.76,165.56z M270.62,167.32c-1.64-0.5-2.65-2.27-2.14-3.91s2.14-2.52,3.91-2.02
	s2.65,2.27,2.14,3.91C273.89,166.94,272.25,167.82,270.62,167.32z M235.22,154.85c-1.39-0.38-2.14-1.89-1.76-3.28
	s1.89-2.14,3.28-1.76s2.14,1.89,1.76,3.28S236.6,155.23,235.22,154.85z M273.14,149.68c-1.26-0.38-2.02-1.51-1.64-2.65
	c0.38-1.13,1.64-1.64,2.77-1.26c1.26,0.38,2.02,1.51,1.64,2.65C275.65,149.56,274.39,150.06,273.14,149.68z M258.65,157.75
	c-1.01-0.25-1.51-1.39-1.13-2.52c0.25-1.13,1.39-1.76,2.27-1.39c1.01,0.25,1.51,1.39,1.13,2.52
	C260.66,157.37,259.66,158,258.65,157.75z M267.47,149.18c-0.63-0.25-1.01-0.88-0.88-1.39c0.13-0.63,0.88-0.88,1.51-0.76
	c0.63,0.25,1.01,0.88,0.88,1.39S268.22,149.31,267.47,149.18z M249.33,150.94c-1.64-0.5-2.65-2.27-2.14-3.91
	c0.5-1.64,2.14-2.52,3.78-2.02c1.64,0.5,2.65,2.27,2.14,3.91C252.73,150.44,250.96,151.32,249.33,150.94z M338.89,224.38
	c-0.63-1.26-0.25-2.9,0.88-3.4c1.13-0.63,2.52,0,3.28,1.26c0.63,1.26,0.25,2.9-0.88,3.4C340.91,226.27,339.52,225.77,338.89,224.38z
	 M348.34,170.34c-0.5-1.01-0.13-2.27,0.88-2.77c1.01-0.5,2.27-0.13,2.77,0.88c0.5,1.01,0.13,2.27-0.88,2.77
	C350.1,171.73,348.84,171.35,348.34,170.34z M363.2,176.01c-0.5-1.01-0.25-2.14,0.5-2.52s1.76,0.13,2.27,1.13
	c0.5,1.01,0.25,2.14-0.5,2.52C364.72,177.4,363.71,177.02,363.2,176.01z M354.39,169.46c-0.25-0.5-0.13-1.26,0.5-1.51
	c0.5-0.25,1.13,0,1.51,0.5c0.25,0.5,0.13,1.26-0.5,1.51C355.39,170.22,354.76,169.97,354.39,169.46z M354.64,224.64
	c-0.76-1.51-0.25-3.28,1.13-4.03c1.39-0.76,3.02,0,3.78,1.51s0.25,3.28-1.13,4.03C357.16,226.78,355.39,226.15,354.64,224.64z
	 M323.27,169.84c-0.63-1.26-0.25-2.9,0.88-3.4c1.13-0.63,2.52,0,3.28,1.26c0.63,1.26,0.25,2.9-0.88,3.4
	C325.41,171.85,324.03,171.23,323.27,169.84z M306.01,180.04c-0.5-1.01-0.13-2.27,0.88-2.77c1.01-0.5,2.27-0.13,2.77,0.88
	c0.5,1.01,0.13,2.27-0.88,2.77C307.78,181.43,306.52,181.05,306.01,180.04z M320.88,185.59c-0.5-1.01-0.25-2.14,0.5-2.52
	s1.76,0.13,2.27,1.13s0.25,2.14-0.5,2.52S321.38,186.59,320.88,185.59z M312.19,179.16c-0.25-0.5-0.13-1.26,0.5-1.51
	c0.5-0.25,1.13,0,1.51,0.5c0.25,0.5,0.13,1.26-0.5,1.51S312.44,179.67,312.19,179.16z M326.17,177.4c-0.76-1.51-0.25-3.28,1.13-4.03
	c1.39-0.76,3.02,0,3.78,1.51c0.76,1.51,0.25,3.28-1.13,4.03C328.56,179.67,326.92,178.91,326.17,177.4z M368.37,180.8
	c-0.63-1.26-0.25-2.9,0.88-3.4c1.13-0.63,2.52,0,3.28,1.26c0.63,1.26,0.25,2.9-0.88,3.4C370.51,182.69,369,182.18,368.37,180.8z
	 M334.48,181.18c-0.5-1.01-0.13-2.27,0.88-2.77c1.01-0.5,2.27-0.13,2.77,0.88c0.5,1.01,0.13,2.27-0.88,2.77
	C336.25,182.69,334.99,182.18,334.48,181.18z M349.35,186.85c-0.5-1.01-0.25-2.14,0.5-2.52s1.76,0.13,2.27,1.13
	c0.5,1.01,0.25,2.14-0.5,2.52S349.85,187.85,349.35,186.85z M340.66,180.29c-0.25-0.5-0.13-1.26,0.5-1.51c0.5-0.25,1.13,0,1.51,0.5
	c0.25,0.5,0.13,1.26-0.5,1.51S340.91,180.92,340.66,180.29z M354.64,178.66c-0.76-1.51-0.25-3.28,1.13-4.03
	c1.39-0.76,3.02,0,3.78,1.51c0.76,1.51,0.25,3.28-1.13,4.03C357.03,180.8,355.39,180.17,354.64,178.66z M355.02,160.9
	c-0.63-1.26-0.25-2.9,0.88-3.4c1.13-0.63,2.52,0,3.28,1.26c0.63,1.26,0.25,2.9-0.88,3.4C357.16,162.79,355.77,162.16,355.02,160.9z
	 M321.13,161.27c-0.5-1.01-0.13-2.27,0.88-2.77c1.01-0.5,2.27-0.13,2.77,0.88c0.5,1.01,0.13,2.27-0.88,2.77
	C322.89,162.66,321.63,162.28,321.13,161.27z M335.99,166.94c-0.5-1.01-0.25-2.14,0.5-2.52s1.76,0.13,2.27,1.13
	c0.5,1.01,0.25,2.14-0.5,2.52S336.5,167.95,335.99,166.94z M327.3,160.39c-0.25-0.5-0.13-1.26,0.5-1.51c0.5-0.25,1.13,0,1.51,0.5
	c0.25,0.5,0.13,1.26-0.5,1.51S327.55,160.9,327.3,160.39z M341.28,158.75c-0.76-1.51-0.25-3.28,1.13-4.03
	c1.39-0.76,3.02,0,3.78,1.51c0.76,1.51,0.25,3.28-1.13,4.03C343.68,160.9,342.04,160.27,341.28,158.75z M318.86,174.88
	c-0.63-1.26-0.25-2.9,0.88-3.4c1.13-0.63,2.52,0,3.28,1.26c0.63,1.26,0.25,2.9-0.88,3.4C321,176.77,319.49,176.26,318.86,174.88z
	 M284.98,175.26c-0.5-1.01-0.13-2.27,0.88-2.77c1.01-0.5,2.27-0.13,2.77,0.88c0.5,1.01,0.13,2.27-0.88,2.77
	C286.61,176.77,285.48,176.39,284.98,175.26z M299.84,180.92c-0.5-1.01-0.25-2.14,0.5-2.52s1.76,0.13,2.27,1.13
	c0.5,1.01,0.25,2.14-0.5,2.52S300.34,181.93,299.84,180.92z M291.02,174.37c-0.25-0.5-0.13-1.26,0.5-1.51c0.5-0.25,1.13,0,1.51,0.5
	c0.25,0.5,0.13,1.26-0.5,1.51C292.03,175.13,291.4,175,291.02,174.37z M305.01,172.74c-0.76-1.51-0.25-3.28,1.13-4.03
	c1.39-0.76,3.02,0,3.78,1.51c0.76,1.51,0.25,3.28-1.13,4.03C307.52,174.88,305.76,174.25,305.01,172.74z M333.98,156.23
	c-0.63-1.26-0.25-2.9,0.88-3.4c1.13-0.63,2.52,0,3.28,1.26c0.63,1.26,0.25,2.9-0.88,3.4C336.12,158.12,334.73,157.49,333.98,156.23z
	 M300.09,156.61c-0.5-1.01-0.13-2.27,0.88-2.77c1.01-0.5,2.27-0.13,2.77,0.88c0.5,1.01,0.13,2.27-0.88,2.77
	C301.86,158,300.6,157.62,300.09,156.61z M314.96,162.28c-0.5-1.01-0.25-2.14,0.5-2.52s1.76,0.13,2.27,1.13
	c0.5,1.01,0.25,2.14-0.5,2.52C316.47,163.67,315.46,163.29,314.96,162.28z M306.27,155.73c-0.25-0.5-0.13-1.26,0.5-1.51
	c0.5-0.25,1.13,0,1.51,0.5c0.25,0.5,0.13,1.26-0.5,1.51C307.15,156.49,306.52,156.23,306.27,155.73z M320.25,154.09
	c-0.76-1.51-0.25-3.28,1.13-4.03c1.39-0.76,3.02,0,3.78,1.51s0.25,3.28-1.13,4.03C322.64,156.23,321,155.6,320.25,154.09z"/>
</svg>
