<?xml version="1.0" encoding="utf-8"?>
<!-- Generator: Adobe Illustrator 24.0.0, SVG Export Plug-In . SVG Version: 6.00 Build 0)  -->
<svg version="1.1" id="Layer_1" xmlns="http://www.w3.org/2000/svg" xmlns:xlink="http://www.w3.org/1999/xlink" x="0px" y="0px"
	 viewBox="0 0 566.93 566.93" style="enable-background:new 0 0 566.93 566.93;" xml:space="preserve">
<style type="text/css">
	.st0{fill:#E9EFF3;}
	.st1{fill:#3C5A9B;}
	.st2{fill:#9ACCEE;}
	.st3{fill:#3C5A9C;}
</style>
<circle class="st0" cx="283.46" cy="283.46" r="282.05"/>
<path class="st1" d="M195.32,397.94v0.1l0.05,0.08c0.97,2.7,2.04,5.33,3.23,7.9c6.63,14.51,17.37,26.76,30.89,35.22
	c14.79,9.3,32.74,14.25,53.36,14.7h0.13c0.38,0,0.76-0.04,1.13-0.13c0.38,0.08,0.75,0.13,1.15,0.13h0.11
	c20.62-0.45,38.57-5.39,53.35-14.7c13.52-8.46,24.27-20.7,30.9-35.21c7.9-17,10.55-36.65,7.65-56.86
	c-2.85-20.11-11.05-39.07-23.75-54.92c-36.8-45.57-57.68-107.03-63.81-187.88c-0.21-2.78-2.64-4.87-5.42-4.66
	c-0.06,0-0.12,0.01-0.18,0.02c-2.77-0.31-5.27,1.69-5.57,4.47c-0.01,0.06-0.01,0.11-0.02,0.17c-6.14,80.85-27,142.31-63.81,187.88
	c-12.7,15.84-20.91,34.8-23.77,54.91c-2.44,17.09-0.94,33.77,4.36,48.79L195.32,397.94z"/>
<path class="st2" d="M207.62,392.81v0.08l0.04,0.06c0.83,2.2,1.76,4.35,2.79,6.45c5.71,11.85,14.96,21.85,26.61,28.76
	c12.74,7.59,28.21,11.64,45.97,12.01h0.11c0.33,0,0.65-0.03,0.97-0.1c0.32,0.06,0.65,0.1,0.99,0.1h0.1
	c17.76-0.37,33.23-4.4,45.96-12.01c14.48-8.65,22.08-20.42,25.21-26.07c0.62-1.11,1.09-2.04,1.41-2.68
	c9.2-18.5,7.47-35.74,6.55-43.77c-0.93-8.15-2.72-14.11-3.91-17.96c-5.27-17.19-13.31-28.78-18.08-35.75
	c-14.66-21.39-24.86-36.26-30.73-46.65c-27.28-48.24-20.56-104.55-27.34-104.34c-0.07,0-0.13,0.01-0.16,0.01
	c-1.44,11.9-3.91,27.81-8.39,46.28c-4.43,18.22-8.81,36.29-18.76,57.23c-1.14,2.41-2.07,4.24-3.04,5.98
	c-4.63,8.35-8.75,14.34-10.65,16.98c-9.4,13.06-15.08,19.81-19.2,25.62c-2.08,2.94-12.92,18.56-17.7,39.59
	C204.27,351.9,201.6,369.89,207.62,392.81z"/>
<path class="st2" d="M638.91,126.07"/>
<path class="st3" d="M345.68,348.33c11.1,27.81-2.33,59.4-30,70.56c-5.68,2.29-11.71,3.59-17.83,3.85l-13.57,0.58
	c30.37-11.25,52.99-37.22,60.05-68.96L345.68,348.33z"/>
<circle class="st3" cx="310.16" cy="328.22" r="14.17"/>
</svg>
