<?xml version="1.0" encoding="utf-8"?>
<!-- Generator: Adobe Illustrator 24.0.0, SVG Export Plug-In . SVG Version: 6.00 Build 0)  -->
<svg version="1.1" id="Layer_1" xmlns="http://www.w3.org/2000/svg" xmlns:xlink="http://www.w3.org/1999/xlink" x="0px" y="0px"
	 viewBox="0 0 566.93 566.93" style="enable-background:new 0 0 566.93 566.93;" xml:space="preserve">
<style type="text/css">
	.st0{fill:#E9EFF3;}
	.st1{fill:#3F5A9E;}
	.st2{fill:#9ACCEE;}
</style>
<circle class="st0" cx="283.46" cy="283.46" r="282.05"/>
<g id="XMLID_2_">
	<g>
		<path class="st1" d="M271.83,203.48c6.25-2.81,13.39-2.81,19.63,0l0.33-0.18l1.19,0.24c4.96,1.05,9.27,4.09,11.9,8.43
			c2.59,5.26,2.68,11.42,0.21,16.75c-3.46,7.04-10.37,11.73-18.18,12.36c0.26,2.44-0.38,4.9-1.79,6.91
			c-1.96,2.98-5.12,4.94-8.66,5.36c-2.74,0-5.31-1.35-6.88-3.6l-1.31-1.67l0.21-0.18c-1.1-2.1-1.55-4.49-1.28-6.85
			c0.17-1.07,0.56-2.11,1.15-3.02c-2.38-1.84-4.01-4.5-4.54-7.46c-0.15-2.08-0.91-4.06-2.21-5.7l-1.09-0.78l-0.18-1.34
			C258.74,214.34,263.67,206.06,271.83,203.48z"/>
		<path class="st1" d="M334.06,123.54h-5.35c-0.21-3.08-0.3-6.16-0.29-9.25v-4.94h5.64V123.54z"/>
		<path class="st1" d="M230.89,123.54h6.87c-2.82,21.32-8.71,40.61-20.81,69.19l-3.03,6.94c-1.44,3.5-2.37,7.2-2.79,10.97
			c-0.27,1.78-0.48,3.15-0.75,4.48c-0.93,4.64-0.93,9.42,0,14.06c0.94,4.41,2.86,8.56,5.64,12.12c6.3,8.08,15.55,13.33,25.71,14.58
			c9.36,0.96,18.02,5.42,24.25,12.48c3.99,5.7,10.4,9.21,17.36,9.48h0.61c7.12-0.44,13.65-4.16,17.66-10.06
			c4.85-6.88,13.43-11.15,24.25-12.12c5.93-0.35,11.72-1.94,16.99-4.67c4.63-2.49,8.39-6.32,10.79-10.99
			c4.21-8.27,5-19.64,2.27-32.9c-2.44-11.82-6.78-23.15-12.85-33.58c-5.83-10.14-9.92-21.17-12.12-32.66
			c-1.12-5.72-1.86-11.51-2.23-17.33h5.35v-14.19h-5.64v-0.13h15.76v2.52c-0.28,11.75,0.96,34.42,12.36,53.82
			c6.91,11.93,11.88,24.89,14.72,38.39c3.36,16.93,2.09,31.84-3.7,43.11c-5.09,10-16.24,22.15-40.48,24.24
			c-6.33,0.66-10.61,2.45-12.66,5.49c-6.86,9.98-18,16.17-30.09,16.73h-0.91c-11.8-0.26-22.8-5.99-29.75-15.51
			c-3.44-3.47-7.92-5.71-12.76-6.4c-14.73-1.58-28.22-8.98-37.45-20.57c-8.43-11.08-11.54-25.32-8.52-38.9
			c0.28-1.21,0.46-2.45,0.64-3.66c0.59-5.21,1.91-10.32,3.93-15.15l3.03-6.76c13.48-31.6,18.73-50.51,20.79-74.96l0.18-1.97l2-0.27
			h5.36V123.54z"/>
		<path class="st2" d="M276.47,253.34c3.54-0.42,6.7-2.38,8.66-5.36c1.41-2.01,2.05-4.47,1.79-6.91
			c7.81-0.63,14.72-5.32,18.18-12.36c2.46-5.32,2.38-11.49-0.21-16.75c-2.64-4.34-6.94-7.38-11.9-8.43l-1.19-0.24l-0.33,0.18
			c-6.24-2.81-13.38-2.81-19.63,0c-8.16,2.58-13.09,10.86-11.49,19.26l0.18,1.34l1.09,0.78c1.3,1.64,2.06,3.62,2.21,5.7
			c0.54,2.96,2.16,5.61,4.54,7.46c-0.59,0.91-0.98,1.95-1.15,3.02c-0.28,2.36,0.17,4.75,1.28,6.85l-0.21,0.18l1.31,1.67
			C271.15,251.99,273.73,253.34,276.47,253.34z M237.76,123.54h90.95c0.36,5.82,1.1,11.6,2.23,17.33
			c2.2,11.49,6.29,22.52,12.12,32.66c6.06,10.43,10.4,21.76,12.85,33.58c2.73,13.26,1.94,24.63-2.27,32.9
			c-2.4,4.67-6.16,8.51-10.79,10.99c-5.27,2.73-11.07,4.32-16.99,4.67c-10.82,0.96-19.39,5.24-24.25,12.12
			c-4.01,5.9-10.53,9.62-17.66,10.06h-0.61c-6.95-0.27-13.37-3.78-17.36-9.48c-6.22-7.06-14.88-11.52-24.25-12.48
			c-10.17-1.25-19.41-6.5-25.71-14.58c-2.78-3.56-4.69-7.7-5.64-12.12c-0.93-4.64-0.93-9.42,0-14.06c0.27-1.33,0.48-2.7,0.75-4.48
			c0.42-3.77,1.35-7.47,2.79-10.97l3.03-6.94C229.05,164.15,234.94,144.86,237.76,123.54z"/>
		<path class="st1" d="M230.89,109.35h8.34l-0.43,4.69c-0.29,3.22-0.63,6.39-1.04,9.49h-6.87V109.35z"/>
		<path class="st1" d="M239.23,109.35h89.2v4.94c-0.01,3.09,0.08,6.17,0.29,9.25h-90.95c0.41-3.11,0.75-6.27,1.04-9.49
			L239.23,109.35z"/>
	</g>
	<g>
	</g>
</g>
<g>
	<g id="XMLID_1_">
		<g>
			<path class="st1" d="M388.6,332.96c3.76,17.42-1.58,36.7-16.09,57.65c-13.76,19.09-22.31,41.44-24.78,64.84l-0.18,1.97
				l-1.99,0.28h-2.14v-13.94h-9.87c3.81-22.5,12.76-43.86,26.22-62.42c11.69-16.54,16.26-31.54,13.24-44.6
				c-2.69-10.61-9.72-19.61-19.36-24.78c-11.85-6.51-24.3-4.61-34.51,5.6c-1.78,1.79-3.42,3.71-4.92,5.73
				c-7.94,10.11-20.09,16.04-32.96,16.06c-12.14-0.08-23.46-6.11-30.3-16.12c-5.83-8.8-15.92-13.82-26.45-13.15
				c-11.64,1-21.7,9.24-28.36,23.21c-3.2,6.75-4.25,14.33-3.03,21.7c1.11,6.43,3.41,12.59,6.76,18.18c4,6.74,8.96,12.87,14.72,18.17
				c0.89,0.79,20.27,18.26,22.37,52.42h-8.22v13.54h-7.61v-3.76l0.48-0.51c1.09-31.91-15.2-48.15-17.09-49.91
				c-7.08-6.54-13.16-14.1-17.99-22.45c-10.82-18.85-12.31-37.66-4.27-54.54c3.14-6.74,7.41-12.89,12.63-18.18
				c7.57-7.85,17.71-12.74,28.57-13.79c16.06-1.29,31.58,6.2,40.56,19.58c3.88,5.89,10.44,9.47,17.49,9.55
				c7.92,0.02,15.41-3.56,20.37-9.73c6.25-8.89,15.04-15.67,25.23-19.46c11.54-3.78,24.16-2.37,34.57,3.88
				C375.18,305.34,384.96,318.03,388.6,332.96z"/>
			<path class="st2" d="M373,336.74c3.02,13.06-1.55,28.06-13.24,44.6c-13.46,18.56-22.4,39.92-26.22,62.42h-96.58
				c-2.1-34.17-21.48-51.63-22.37-52.42c-5.76-5.3-10.72-11.43-14.72-18.17c-3.35-5.59-5.65-11.75-6.76-18.18
				c-1.22-7.37-0.17-14.95,3.03-21.7c6.66-13.97,16.73-22.21,28.36-23.21c10.53-0.68,20.62,4.35,26.45,13.15
				c6.84,10.02,18.16,16.05,30.3,16.12c12.87-0.02,25.02-5.95,32.96-16.06c1.5-2.02,3.14-3.94,4.92-5.73
				c10.21-10.21,22.66-12.12,34.51-5.6C363.28,317.13,370.31,326.13,373,336.74z"/>
			<path class="st1" d="M343.41,443.77v13.94h-11.56l0.31-3.64c0.34-3.45,0.8-6.89,1.38-10.3H343.41z"/>
			<path class="st1" d="M236.96,443.77h96.58c-0.58,3.41-1.04,6.85-1.38,10.3l-0.31,3.64h-103.1v-0.4h8.36v-4.09
				C237.21,449.94,237.15,446.79,236.96,443.77z"/>
			<path class="st1" d="M236.96,443.77c0.19,3.02,0.25,6.17,0.14,9.45v4.09h-8.36v-13.54H236.96z"/>
		</g>
		<g>
		</g>
	</g>
</g>
</svg>
