<?xml version="1.0" encoding="utf-8"?>
<!-- Generator: Adobe Illustrator 24.0.0, SVG Export Plug-In . SVG Version: 6.00 Build 0)  -->
<svg version="1.1" id="Layer_1" xmlns="http://www.w3.org/2000/svg" xmlns:xlink="http://www.w3.org/1999/xlink" x="0px" y="0px"
	 viewBox="0 0 566.93 566.93" style="enable-background:new 0 0 566.93 566.93;" xml:space="preserve">
<style type="text/css">
	.st0{fill:#E9EFF3;}
	.st1{fill:#3D5A9E;}
	.st2{fill:#9ACCEE;}
</style>
<path class="st0" d="M1.42,283.46c0,155.77,126.28,282.05,282.05,282.05s282.05-126.28,282.05-282.05S439.23,1.42,283.46,1.42
	S1.42,127.7,1.42,283.46z"/>
<path class="st1" d="M237.88,447.33c-18.9,0-34.78-15.12-37.3-35.29l0.25-1.76c0.5-1.26,9.83-31.51,39.57-34.03
	c0.25,0,0.76-0.25,1.01-0.76c0.25-0.5,0.5-1.26,0.5-2.02c-0.25-1.26-1.51-1.51-2.52-1.51h-0.5c-24.95,2.52-38.56,26.47-42.85,34.28
	c-1.51,2.77-2.52,4.54-5.29,4.54c-19.66,0-35.79-16.38-37.56-37.3c-18.9-2.27-33.78-19.91-33.78-41.08c0-6.55,2.02-13.11,3.28-17.39
	l4.28-3.02h0.5c4.54,0,11.85-3.53,19.41-7.31c10.59-5.29,22.43-11.09,34.03-11.09c6.05,0,11.59,1.76,16.13,4.79l0.25,0.25
	c0.5,0.25,0.76,0.76,1.26,1.01c2.52,2.02,5.29,4.03,6.81,7.31c0.5,1.01,1.51,1.51,2.77,1.51h0.76c1.01-0.76,1.51-2.02,1.01-3.53
	c-2.02-4.79-6.55-8.82-10.33-11.09c-5.8-3.28-11.85-5.04-18.15-5.04c-11.85,0-22.68,5.8-32.26,10.84
	c-7.56,4.03-14.11,7.56-19.91,7.56h-1.01l-3.53-2.27c-3.53-6.3-5.04-13.11-5.04-20.67c0-6.3,1.76-11.85,3.28-17.14l1.01-1.51
	c10.59-11.85,26.97-18.15,48.65-18.15c18.4,0,34.78,4.54,38.56,5.8c1.01-0.25,2.02-1.26,2.02-2.27c0-1.26-1.26-2.52-2.52-2.52
	l-1.01-0.25c-0.25,0-18.15-4.54-37.05-4.54c-13.86,0-32.51,2.52-40.83,14.11l-7.31-0.5c-3.02-5.8-4.54-13.11-4.54-19.91
	c0-16.89,9.83-32.51,24.2-38.56l4.54,1.01c0,0,15.38,13.11,35.04,13.11c4.28,0,8.32-0.5,12.35-1.76l1.26-0.25
	c0.5,0,1.26-0.25,1.51-0.76c0.25-0.25,0.5-0.76,0.25-1.01v-0.5c0-1.01-0.76-1.76-1.51-2.02c-5.04,2.02-10.33,3.02-15.38,3.02
	c-12.85,0-21.68-6.3-25.96-9.33c-0.5-0.25-1.01-0.76-1.26-1.01l-1.76-4.79c8.57-29.24,35.79-35.29,40.83-35.29l2.27,0.76
	c1.76,1.01,44.61,28.23,40.08,75.62v0.25c0,0.5,0,0.76,0.25,1.01c0.5,0.5,1.01,0.76,1.51,0.76h0.5c1.26,0,2.52-0.76,2.52-2.02
	c1.01-50.41-37.56-74.36-37.81-74.61l0.5-1.01l-3.02-3.53c3.53-19.91,19.66-34.53,38.31-34.53c20.92,0,37.81,18.65,37.81,41.34v0.25
	c-1.01,14.37-1.51,134.34-1.51,242.22C275.69,428.93,258.8,447.33,237.88,447.33L237.88,447.33z M326.61,446.32
	c-20.92,0-37.81-18.65-37.81-41.34V161.5c0-22.94,16.89-41.34,37.81-41.34c18.15,0,34.03,14.37,38.31,34.28l-2.27,4.79
	c-0.25,0.25-38.82,23.95-37.81,74.61c0,1.26,1.26,2.02,2.52,2.02h0.5c0.5,0,1.26-0.25,1.51-0.76c0.25-0.25,0.5-0.76,0.25-1.01v-0.25
	c-4.28-47.39,38.31-74.61,40.08-75.62l2.27-0.76c5.04,0,31.76,6.05,40.83,35.04l-1.76,4.79c-0.5,0.25-1.01,0.76-1.51,1.01
	c-4.28,3.02-13.11,9.58-25.46,9.58c-5.04,0-10.33-1.01-15.38-3.02c-1.01,0.25-1.51,1.01-1.51,2.02v0.5c0,0.5,0,0.76,0.25,1.01
	c0.5,0.5,1.01,0.76,1.51,0.76l1.26,0.25c3.78,1.26,7.81,1.76,12.1,1.76c7.81,0,20.42-2.27,34.78-12.85
	c1.26-0.76,2.02-1.51,3.53-1.51l1.51,0.25c14.62,5.8,24.45,21.42,24.45,38.56c0,7.06-1.51,13.86-4.54,19.91l-7.31,0.5
	c-8.32-11.85-26.97-14.11-40.83-14.11c-19.16,0-37.05,4.54-37.05,4.54l-1.01,0.25c-1.26,0-2.52,1.26-2.52,2.52v0.76
	c-0.25,1.51,0,2.52,0.25,2.77c0,0,0,0.25,0.25,0.25c4.03-1.26,20.16-5.8,38.56-5.8c21.42,0,37.81,6.05,48.65,18.15l0.76,1.01
	c2.27,5.04,3.53,11.34,3.53,17.64c0,7.81-1.76,15.12-5.29,20.67l-3.28,2.02h-1.01c-6.3,0-12.85-3.53-20.42-7.56
	c-9.33-5.04-20.16-10.84-31.76-10.84c-6.3,0-12.1,1.51-18.15,5.04c-2.77,1.51-7.81,5.55-10.59,11.09c-0.25,0.5-0.25,1.01,0,1.51
	c0.25,0.76,0.76,1.26,1.51,1.51h0.25c0.25,0,0.5,0.25,0.76,0.25c0.76,0,1.76-0.5,2.27-1.51v-0.25c1.26-2.77,4.54-5.8,8.07-8.32
	c4.54-3.28,9.83-4.79,15.88-4.79c11.59,0,23.44,6.05,34.03,11.09c7.81,3.78,15.12,7.31,19.66,7.31h0.5l4.28,2.52
	c2.27,5.04,3.53,11.34,3.53,17.64c0,21.42-14.87,38.82-33.78,41.08c-1.76,20.92-18.15,37.3-37.56,37.3c-2.77,0-3.78-1.76-5.29-4.54
	c-4.54-7.81-17.9-31.76-42.6-34.28h-0.5c-1.26,0-2.52,1.01-2.52,1.76c-0.25,1.26,0.25,2.52,1.51,2.77
	c29.24,2.27,39.32,32.51,39.57,33.78l0.25,1.76C361.39,431.2,345.51,446.32,326.61,446.32L326.61,446.32z"/>
<path class="st2" d="M237.88,436.75c-13.11,0-24.2-10.33-26.47-24.45c1.76-5.04,10.08-23.69,29.99-25.21h0.5
	c6.81-1.01,11.59-7.81,10.59-14.87c-1.01-6.3-6.3-10.84-12.85-10.84h-1.76c-19.66,2.02-36.55,14.87-50.16,38.31
	c-13.36-2.02-23.69-14.87-23.69-30.5l-6.3-6.3c-14.87,0-27.22-13.86-27.22-30.75c0-3.53,0.76-6.81,1.51-9.83
	c6.05-1.01,12.6-4.28,20.16-8.07c9.58-4.79,20.16-10.08,29.24-10.08c3.78,0,7.06,1.01,10.08,2.77c0.25,0.25,0.76,0.5,1.26,1.01
	c1.26,1.01,3.02,2.27,3.53,3.02l0.25,0.5c2.27,4.54,7.06,7.56,12.35,7.56c1.26,0,2.77-0.25,4.03-0.5l1.01-0.5
	c5.8-3.02,8.82-9.83,6.81-16.38l-0.25-0.5c-3.53-9.33-11.85-14.87-15.12-16.64c-7.56-4.28-15.38-6.3-23.44-6.3
	c-14.62,0-27.22,6.81-37.3,12.1c-4.54,2.27-8.57,4.54-11.85,5.8c-1.26-3.53-2.02-7.56-2.02-11.59c0-4.28,1.01-8.32,2.52-12.6
	c8.57-8.82,21.93-13.36,39.57-13.36c19.16,0,36.04,5.29,36.3,5.55l2.02,0.25c7.06,0,13.11-6.05,13.11-13.11
	c0-6.81-5.55-12.6-12.1-13.11c-3.53-0.76-20.67-4.79-39.07-4.79c-17.9,0-32.01,3.53-41.34,10.59c-0.25-2.02-0.5-4.28-0.5-6.3
	c0-11.34,5.8-21.93,14.62-26.97c6.55,4.79,20.92,13.36,38.82,13.36c5.04,0,9.83-0.76,14.62-2.02c3.28-0.25,6.3-1.76,8.57-4.28
	c2.27-2.52,3.28-5.8,3.02-9.07c-0.25-6.81-5.55-12.1-12.35-12.1h-1.76l-1.51,0.25c-4.03,1.51-8.32,2.52-12.1,2.52
	c-7.56,0-13.36-3.02-17.14-5.55c6.81-16.89,22.18-21.68,27.47-22.68c7.81,5.55,36.55,28.73,33.27,64.27
	c-0.5,3.28,0.5,6.81,2.77,9.33c2.52,2.77,6.05,4.28,9.58,4.28h0.5c7.31,0,13.11-5.55,13.11-12.6c0.76-34.53-15.12-58.22-28.48-71.84
	c0,0-5.55-5.8-10.84-9.58c3.78-12.85,14.62-21.68,26.72-21.68c14.87,0,26.97,13.61,27.22,30.5c-1.51,19.66-1.51,190.55-1.51,242.73
	C265.1,422.88,252.75,436.75,237.88,436.75L237.88,436.75z M326.61,435.74c-14.87,0-27.22-13.86-27.22-30.75V161.5
	c0-16.89,12.1-30.75,27.22-30.75c11.85,0,22.68,9.07,26.72,21.93c-11.34,8.57-40.33,35.04-39.32,81.16c0,7.06,5.8,12.35,13.11,12.35
	h0.5c3.78,0,7.31-1.51,9.58-4.28c2.27-2.52,3.28-6.05,2.77-9.33c-3.02-35.54,25.46-58.73,33.27-64.27
	c5.29,1.26,20.16,6.05,27.47,22.94c-3.78,2.77-9.58,5.8-16.89,5.8c-3.78,0-8.07-0.76-12.1-2.52l-1.51-0.5h-1.76
	c-6.55,0-12.1,5.55-12.35,12.1c-0.25,3.28,0.76,6.55,3.02,9.07c2.27,2.52,5.29,4.03,8.57,4.28c4.54,1.26,9.58,2.02,14.37,2.02
	c9.07,0,22.94-2.27,38.82-13.36c8.82,5.04,14.62,15.63,14.62,27.22c0,2.02-0.25,4.28-0.5,6.3c-9.58-7.06-23.44-10.59-41.59-10.59
	c-18.65,0-35.54,3.78-39.07,4.79c-6.55,0.5-11.85,5.8-12.1,12.35c-0.76,4.28,0.25,8.32,2.52,11.09c2.22,2.73,5.56,4.31,9.07,4.28
	l2.02-0.25c0.25,0,17.14-5.55,36.3-5.55c17.9,0,31.25,4.54,39.82,13.61c1.51,3.53,2.27,7.81,2.27,12.35c0,4.28-0.76,8.32-2.02,11.59
	c-3.28-1.01-7.81-3.28-12.35-5.8c-10.08-5.29-22.43-12.1-36.8-12.1c-8.07,0-15.88,2.02-23.44,6.3c-4.79,2.77-11.34,8.32-14.87,15.63
	c-1.51,3.02-1.76,6.55-0.5,9.83c1.26,3.28,3.78,6.05,7.06,7.56c1.51,0.76,3.53,1.26,5.29,1.26c5.04,0,9.83-3.02,11.85-7.81
	c0.5-0.76,1.76-2.52,4.54-4.28c3.02-2.02,6.3-3.02,10.08-3.02c9.07,0,19.91,5.29,29.24,10.08c7.56,3.78,14.37,7.06,20.67,8.32
	c0.76,3.02,1.26,6.3,1.26,9.83c0,16.89-12.1,30.75-27.22,30.75l-6.3,6.3c0,15.63-10.33,28.48-23.69,30.5
	c-13.61-23.44-30.5-36.55-50.16-38.31h-1.76c-6.3,0-12.1,4.54-13.11,10.59c-0.5,3.53,0.25,6.81,2.02,9.58
	c2.02,3.02,5.04,5.04,8.57,5.55h0.5c19.41,1.51,27.98,20.16,29.99,25.21C350.8,425.4,339.71,435.74,326.61,435.74z"/>
</svg>
