<?xml version="1.0" encoding="utf-8"?>
<!-- Generator: Adobe Illustrator 24.0.0, SVG Export Plug-In . SVG Version: 6.00 Build 0)  -->
<svg version="1.1" id="Layer_1" xmlns="http://www.w3.org/2000/svg" xmlns:xlink="http://www.w3.org/1999/xlink" x="0px" y="0px"
	 viewBox="0 0 566.93 566.93" style="enable-background:new 0 0 566.93 566.93;" xml:space="preserve">
<style type="text/css">
	.st0{fill:#E9EFF3;}
	.st1{fill:#3C5A9D;}
	.st2{fill:#9ACCEE;}
</style>
<path class="st0" d="M1.42,283.75c0,155.77,126.27,282.04,282.04,282.05s282.05-126.27,282.06-282.03c0-0.01,0-0.01,0-0.02
	c0-155.77-126.27-282.04-282.04-282.05C127.7,1.7,1.42,127.97,1.42,283.73C1.42,283.74,1.42,283.74,1.42,283.75z"/>
<path class="st1" d="M281.49,337.18c-3.72-5.86-134.03-83.68-134.03-83.68l-2.08-127.66h-26.97v124.2c0,0-59.3,98.99-2.9,159.36
	c0,0,45.62,52.11,108.32,24.01S285.27,343.04,281.49,337.18L281.49,337.18z"/>
<path class="st1" d="M447.4,249.98v-124.2h-27.1l-2.14,127.66c0,0-130.88,77.82-134.6,83.68c-3.78,5.86-5.17,68.05,57.85,96.16
	s108.82-24.01,108.82-24.01C507.01,349.03,447.4,249.98,447.4,249.98z M226.98,351.3c-0.38-8.32-6.62-15.44-15.06-15.44
	c-1.83,0-3.59,0.38-5.29,1.01c1.51-0.57,3.15-0.88,4.79-0.88c8.25,0,14.43,6.93,14.81,15.12c0.32,8.13-7.06,15.12-14.81,15.12
	c-4.54,0-8.51-2.08-11.15-5.42c2.71,3.53,6.81,5.86,11.59,5.86C219.8,366.74,227.3,359.68,226.98,351.3L226.98,351.3z
	 M147.71,322.69c-0.32-8.13,7.06-15.12,14.81-15.12c8.25,0,14.43,6.93,14.81,15.12c0.13,3.72-1.32,7.25-3.72,9.89
	c2.71-2.77,4.35-6.55,4.22-10.52c-0.38-8.32-6.62-15.44-15.06-15.44c-7.88,0-15.44,7.06-15.06,15.44c0.06,0.76,0.13,1.45,0.25,2.14
	C147.77,323.7,147.71,323.2,147.71,322.69z"/>
<path class="st2" d="M205.43,365.73c-6.3,0-10.96-5.17-11.28-11.28c-0.25-6.05,5.36-11.28,11.28-11.28c6.3,0,10.96,5.17,11.28,11.28
	C216.96,360.56,211.29,365.73,205.43,365.73z M167.18,344.62c-6.49,0-11.34-5.48-11.66-11.97c-0.25-6.43,5.55-11.97,11.66-11.97
	c6.49,0,11.34,5.48,11.66,11.97C179.09,339.07,173.29,344.62,167.18,344.62z M261.76,344.12c-2.96-4.6-132.52-75.36-124.77-75.36
	v-96.28h-6.62l-2.08,96.28c-6.55,0-40.71,83.49,4.03,131.25c0,0,35.92,39.63,83.05,18.27C262.46,396.92,264.73,348.71,261.76,344.12
	L261.76,344.12z M399.45,340.46c-6.3,0-10.96-5.17-11.28-11.28c-0.25-6.05,5.36-11.28,11.28-11.28c6.3,0,10.96,5.17,11.28,11.28
	C410.98,335.23,405.37,340.46,399.45,340.46z M362.27,364.72c-6.3,0-10.96-5.17-11.28-11.28c-0.25-6.05,5.36-11.28,11.28-11.28
	c6.3,0,10.96,5.17,11.28,11.28C373.8,359.55,368.13,364.72,362.27,364.72z M435.81,170.52h-5.92l-3.78,98.23
	c6.43,0-121.93,67.61-124.96,72.21c-3.09,4.6-6.3,52.68,46.94,77.38c53.25,24.7,87.78-20.48,87.78-20.48
	c45.81-47.7-2.39-126.15,3.09-126.15C438.96,271.71,435.81,170.52,435.81,170.52z"/>
</svg>
