<?xml version="1.0" encoding="utf-8"?>
<!-- Generator: Adobe Illustrator 24.0.0, SVG Export Plug-In . SVG Version: 6.00 Build 0)  -->
<svg version="1.1" id="Layer_1" xmlns="http://www.w3.org/2000/svg" xmlns:xlink="http://www.w3.org/1999/xlink" x="0px" y="0px"
	 viewBox="0 0 566.93 566.93" style="enable-background:new 0 0 566.93 566.93;" xml:space="preserve">
<style type="text/css">
	.st0{fill:#E9EFF3;}
	.st1{fill:#3D5A9E;}
	.st2{fill:#9ACCEE;}
</style>
<path class="st0" d="M1.42,283.59c0,155.7,126.28,281.92,282.05,281.92s282.05-126.22,282.05-281.92S439.49,1.42,283.72,1.42
	S1.42,127.89,1.42,283.59L1.42,283.59z"/>
<path class="st1" d="M306.69,454.69c-13.11,0-24.45-9.57-26.21-22.42l-0.25-0.76l-1.26-2.52l-0.5-0.5
	c-7.56-6.8-11.34-17.38-10.08-27.71c0.25-2.02,0.76-4.28,1.51-6.55v-4.28c-1.51-4.79-2.02-9.32-1.76-13.86
	c0.5-4.28,1.76-8.31,4.03-12.09l0.25-0.76l0.5-2.77v-0.76c-0.25-2.27-0.25-5.04,0-7.81c0.5-5.29,2.77-10.83,6.3-15.62l0.25-0.76
	l0.76-2.77V332c0-2.27,0-4.53,0.25-7.05c0.25-2.27,1.01-4.53,1.76-6.55l-0.5-2.27l-6.05-5.29l-2.52-0.25l-3.02,1.51l-0.5,0.25
	l-2.02,1.76l-0.5,0.5c-6.05,9.57-16.13,15.37-27.22,15.37c-4.03,0-7.81-0.5-10.84-1.76l-1.01-0.25l-3.78,0.25l-1.01,0.25
	c-4.54,2.77-9.83,4.03-15.63,4.03c-6.3,0-12.35-1.76-17.64-5.29l-0.76-0.25l-3.28-0.5h-0.76c-2.52,0.76-5.04,1.01-7.06,1.01
	c-14.37,0-27.22-9.32-31-22.93l-0.5-0.76l-2.27-2.77l-0.76-0.5c-11.59-5.29-20.16-18.14-20.16-30.48c0-4.03,1.01-8.06,3.28-11.59
	l0.25-1.01l0.25-4.03l-0.25-1.01c-2.27-4.79-3.53-10.08-3.53-15.87c0-7.56,1.76-13.86,5.29-18.9l0.25-1.01l0.5-3.78v-1.01
	c-1.26-3.53-1.76-6.8-1.76-10.33c0-9.32,4.03-18.14,11.09-24.19l0.5-0.76l1.51-3.53l0.25-1.01v-0.5c0-9.07,3.53-16.88,10.08-22.93
	l0.5-0.5l1.26-2.27l0.25-0.5c3.28-14.36,16.13-24.19,31-24.19h3.28l2.77-1.01l0.76-0.25c5.55-4.53,11.85-6.8,18.9-6.8
	c8.32,0,16.89,3.53,23.19,9.57l0.76,0.5l3.02,1.26l0.76,0.25h2.52c5.04,0,9.58,1.01,13.36,3.02l1.01,0.25h3.78l1.01-0.25
	c4.28-2.02,9.07-3.28,13.61-3.28c6.05,0,11.59,1.51,16.89,4.79l1.01,0.25l3.78,0.25l1.01-0.25c3.78-1.51,7.81-2.52,12.35-2.52
	c3.53,0,7.06,0.5,10.33,1.76h1.01l3.78-0.5l1.01-0.5c5.55-4.03,12.1-6.05,18.9-6.05c5.04,0,10.33,1.26,14.87,3.78l1.01,0.5
	l3.28,0.25h0.76c3.02-1.01,5.8-1.51,8.82-1.51c1.01,0,1.76,0,2.77,0.25c11.85,1.01,22.18,8.82,26.97,19.9
	c1.01,2.27,1.76,4.79,2.27,7.31l0.5,1.01l2.77,3.28l1.01,0.5c12.35,4.53,20.67,16.63,20.67,29.98v1.76l1.01,2.77l0.25,0.76
	c5.04,6.05,7.81,14.61,7.81,23.43c0,4.28-0.5,8.06-1.76,11.09v1.01l0.5,3.78l0.25,1.01c3.28,5.04,5.29,10.83,5.29,16.38v0.76
	c-1.01,6.3-3.53,12.35-7.56,16.88l-0.5,0.76l-1.01,3.28v1.01c0.25,1.26,0.25,2.27,0.25,3.02c0,8.57-3.28,16.63-9.33,22.67l-0.5,0.76
	l-1.26,3.78v1.01c0.5,3.53,0.5,7.05,0,10.58c-2.27,13.35-12.6,23.93-25.46,25.95c-1.26,0.25-2.27,0.25-3.53,0.5l-1.01,0.25
	l-3.53,2.52l-0.76,0.76c-5.04,10.83-15.38,17.64-27.73,18.14h-2.52c-3.53,0-7.06-0.76-10.59-2.02l-1.01-0.25l-4.28,0.76l-1.01,0.5
	c-1.26,1.01-2.27,1.76-3.53,2.52l-0.5,0.5l-1.76,2.27l-0.25,0.5c-0.76,1.76-1.51,3.53-2.27,5.04l-0.25,0.76l-0.5,2.52v0.76
	c0.25,2.52,0.25,5.29,0,8.31c-0.25,2.02-0.76,4.28-1.51,6.55v4.28c1.51,4.79,2.02,9.32,1.76,13.86v0.5
	c-0.25,1.26-0.5,3.02-1.01,4.79v0.76l0.25,2.77l0.25,0.76c1.51,3.53,2.27,6.8,2.27,10.33C332.91,442.85,321.06,454.69,306.69,454.69
	L306.69,454.69z M318.29,293.7c7.81,0,15.38,2.27,21.17,6.55l1.01,0.5l4.28,0.5l1.01-0.25c3.53-1.76,7.31-2.52,11.09-2.77l1.01-0.25
	l3.53-2.27l0.76-0.76c1.76-3.28,3.78-6.3,6.3-8.82l0.5-0.76l1.26-3.78v-1.01c-0.25-1.76-0.5-3.53-0.5-5.04
	c0-9.57,4.03-18.39,11.09-24.19l0.5-0.76l1.51-3.02l0.25-0.76c0.25-2.02,0.5-4.03,1.01-6.05v-1.01l-1.01-3.78l-0.5-1.01
	c-5.04-5.79-7.81-13.35-8.07-21.16l-0.25-0.76l-1.26-3.02l-0.5-0.76c-4.79-4.53-7.56-10.58-8.57-17.38l-0.5-1.01l-2.77-3.28
	l-1.01-0.76c-1.26-0.5-2.27-1.01-3.53-1.51l-0.76-0.25l-3.28-0.25h-0.76c-3.02,1.01-6.3,1.51-9.58,1.51c-3.53,0-7.06-0.5-10.33-1.76
	h-1.01l-3.78,0.5l-1.01,0.5c-5.55,4.03-12.1,6.05-18.9,6.05c-6.05,0-11.59-1.51-16.89-4.79l-1.01-0.25l-4.03-0.25l-1.01,0.25
	c-3.78,1.76-8.07,2.52-12.35,2.52c-6.55,0-12.85-2.02-18.4-5.79l-0.76-0.25l-3.53-0.5h-1.01c-3.28,1.01-6.55,1.01-8.57,1.01
	c-6.3,0-12.1-1.76-16.89-5.29l-0.76-0.5l-3.53-0.76h-1.01c-2.52,0.5-5.04,0.76-7.56,0.76h-0.5l-1.26,0.5l-4.03,3.02l-0.76,1.01
	c-1.76,5.54-5.04,10.58-9.58,14.61l-0.5,0.76l-1.51,3.53l-0.25,1.01v0.5c0,7.05-2.02,13.35-6.05,18.9l-0.5,1.01l-0.5,4.03v1.01
	c1.26,3.53,1.76,6.8,1.76,10.33c0,4.53-1.01,8.82-3.02,12.85l-0.25,1.01l0.25,4.03l0.25,1.01c1.26,2.27,2.27,4.53,3.02,6.8l0.5,0.76
	l2.52,2.77l0.76,0.5c2.02,0.76,3.78,1.76,5.29,2.77l0.76,0.25l3.28,0.76h0.76c2.27-0.5,4.54-0.76,7.06-0.76
	c4.03,0,7.81,0.5,11.59,1.76h0.76l3.53-0.25l0.76-0.25c4.54-2.52,9.58-4.03,14.37-4.28l0.76-0.25l2.52-1.01l0.5-0.25
	c4.79-4.28,11.09-6.55,17.14-6.55c1.51,0,3.02,0.25,4.54,0.5c12.6,1.76,22.43,11.34,23.95,23.43c0.5,3.53,0.5,7.31-0.5,10.83
	l0.76,2.27l6.55,4.53h2.52c5.04-3.28,10.59-5.29,16.64-6.05C315.51,293.7,316.78,293.7,318.29,293.7L318.29,293.7z"/>
<path class="st2" d="M306.69,441.84c-7.56,0-13.61-5.79-13.61-13.1l-0.76-3.02l-1.76-3.53l-2.02-2.27
	c-5.55-3.78-8.32-10.83-7.56-17.64c0.25-2.27,0.76-3.78,1.51-5.54l0.76-2.52l0.25-3.53l-0.5-2.52c-1.51-4.03-2.27-7.56-1.76-11.09
	c0.25-2.77,1.51-5.79,3.53-8.57l1.26-2.77l0.76-4.03l-0.25-3.02c-0.25-0.5-0.5-2.02,0-5.54v-0.5c0.25-3.78,2.27-7.81,5.04-11.09
	l1.26-2.52l1.01-3.53l0.25-2.77c-0.25-2.02-0.25-4.03,0-6.55c1.76-10.83,10.59-19.15,21.42-20.16c1.01,0,2.02-0.25,2.77-0.25
	c6.55,0,12.35,2.27,16.38,6.3l3.78,1.76l5.29,0.5l4.28-1.01c3.28-2.27,6.81-3.28,10.08-3.28h4.03l3.78-1.26l4.03-3.02l2.27-3.28
	c1.51-4.53,4.03-8.31,7.56-10.83l2.27-3.28l1.51-4.79v-4.03c-0.76-2.02-1.01-4.03-1.01-5.79c0-6.55,3.02-12.35,8.32-15.62l2.27-2.27
	l2.02-3.53l0.76-3.02v-2.02c0-2.27,0.5-5.04,1.76-7.56l0.25-4.03l-1.26-5.04l-2.02-3.53c-4.54-3.78-7.06-9.07-7.06-15.12v-3.53
	l-0.76-2.77l-1.51-3.28l-1.76-2.27c-4.54-3.53-6.81-8.57-6.81-14.86v-0.5l-1.26-4.03l-3.28-4.03l-3.53-2.27
	c-3.28-0.76-5.8-1.76-7.06-3.02l-3.28-1.51l-4.54-0.5l-3.53,0.76c-2.27,1.01-4.79,1.76-7.81,1.76c-3.02,0-6.3-0.76-8.82-2.02
	l-4.03-0.76l-5.04,0.76l-3.53,1.76c-3.53,3.53-8.57,5.54-13.61,5.54c-4.54,0-9.07-1.76-12.85-4.79l-3.78-1.51l-5.04-0.25l-3.78,1.01
	c-2.77,1.76-6.3,2.77-9.58,2.77c-4.79,0-9.58-2.02-13.36-5.54l-3.53-1.51l-5.04-0.5l-3.78,0.76c-0.76,0.5-2.52,1.26-6.55,1.26
	c-4.54,0-8.07-1.51-10.59-4.28l-3.28-2.02l-4.79-1.01l-3.78,0.25c-2.02,0.76-4.54,1.26-7.31,1.26c-1.26,0-2.52,0-3.78-0.25
	l-3.02,0.25l-3.78,1.26l-2.52,1.51l-2.27,3.02l-1.26,1.76l-1.26,2.52l-0.5,2.02c-0.5,5.04-3.53,9.83-8.57,12.85l-2.27,2.27
	l-1.76,3.53l-0.76,3.02c0,1.76,0.25,3.02,0.5,4.03v0.76c0,5.04-1.76,9.57-5.55,13.35l-1.76,3.53l-0.76,5.04l0.5,3.78
	c1.76,3.28,2.52,6.3,2.52,9.07c0,2.52-0.5,6.05-3.28,9.83l-1.26,3.78v5.04l1.26,3.78c2.27,3.02,3.78,6.55,4.03,9.07l1.51,3.53
	l3.28,3.78l3.28,2.02c2.77,0.5,5.04,1.76,6.55,3.28l3.02,1.76l4.28,1.01l3.53-0.25c2.02-0.76,4.54-1.01,6.81-1.01
	c3.53,0,7.06,0.76,10.08,2.27l3.28,0.5l4.28-0.5l3.02-1.26c3.53-2.52,8.07-4.28,11.59-4.28h1.01l2.77-0.5l3.53-1.26l2.27-1.51
	c2.77-3.02,6.3-4.79,10.08-4.79c0.76,0,1.51,0,2.27,0.25h0.25c6.81,1.01,12.35,6.05,13.36,12.6c0.76,4.28-0.25,8.31-2.52,10.83
	c-2.27,3.02-5.04,4.79-8.32,5.54l-2.27,1.26l-2.77,2.27l-1.76,2.02c-3.53,6.8-10.08,11.09-17.14,11.09c-3.53,0-6.05-0.76-8.32-2.02
	l-3.78-1.01l-5.04,0.25l-3.53,1.51c-3.28,2.52-7.06,3.78-11.34,3.78c-4.54,0-9.07-1.76-12.85-4.79l-2.77-1.26l-4.03-0.76l-3.28,0.25
	c-2.02,0.76-4.79,1.51-7.06,1.51c-9.83,0-17.9-6.8-19.41-16.12l-1.51-3.28l-3.02-3.53l-3.02-2.02
	c-7.81-2.27-14.87-11.59-14.87-19.65c0-2.77,1.01-5.04,3.02-7.56l1.51-3.78l0.25-5.29l-1.26-4.03c-2.52-3.53-3.78-7.81-3.78-12.85
	c0-6.05,1.51-10.58,4.54-13.6l1.76-3.53l0.76-5.04l-0.5-3.78c-1.76-3.28-2.52-6.3-2.52-9.07c0-6.55,3.28-12.6,9.07-16.38l2.27-2.27
	l2.02-3.53l0.76-3.02c0-1.76-0.25-3.02-0.5-4.03v-0.76c0-5.54,2.52-10.83,7.31-14.61l1.51-1.76l1.51-2.77l0.76-2.27
	c1.26-9.32,9.33-16.12,18.9-16.12h2.77h-0.5l3.53,0.25l4.28-1.01l3.02-1.76c3.78-3.78,7.81-5.54,12.6-5.54
	c6.05,0,12.1,3.02,15.88,7.81l3.02,2.02l4.28,1.51l3.53,0.25c0.76-0.25,2.27-0.25,3.53-0.25c2.52,0,6.3,0.5,9.33,3.02l3.78,1.26
	l5.04,0.25l3.78-1.01c3.02-2.02,7.31-3.28,10.59-3.28c4.54,0,9.07,1.76,12.85,4.79l3.78,1.51l5.04,0.25l3.78-1.01
	c2.77-1.76,6.05-2.77,9.58-2.77c3.28,0,6.3,0.76,8.82,2.02l4.03,0.76l5.04-0.76l3.53-1.76c3.53-3.53,8.57-5.54,13.61-5.54
	c3.78,0,7.81,1.26,10.33,3.53l3.28,1.26l4.28,0.5l3.28-0.5c2.77-1.26,5.04-1.76,7.56-1.76h1.51c7.31,0.76,13.61,5.29,16.64,12.09
	c1.01,2.52,1.76,5.29,1.76,7.56l1.51,4.03l3.53,4.28l3.78,2.27c9.07,1.76,15.38,9.57,15.38,18.9v4.28l1.26,4.53l1.76,3.02
	c3.78,3.53,6.3,10.08,6.3,16.88c0,4.03-0.5,6.55-2.02,8.82l-1.01,4.03l0.5,5.04l1.51,3.78c3.02,3.28,4.79,7.31,5.04,11.09
	c-1.01,4.79-3.28,9.07-6.3,11.84l-1.76,2.77l-1.26,4.28v3.53c0.76,2.77,0.76,4.03,0.76,4.03c0,6.3-3.02,11.84-8.07,15.62l-2.27,3.28
	l-1.51,4.79v4.03c1.01,3.28,1.26,6.05,0.76,9.07c-1.51,8.57-7.06,14.36-14.87,15.87c-2.27,0.25-4.54,0.25-7.06,0.25l-3.78,1.26
	l-4.03,3.02l-2.27,3.28c-2.27,8.06-9.33,13.6-17.9,13.86h-1.76c-2.77,0-5.8-1.01-8.82-2.77l-4.03-0.76l-5.29,0.76l-3.78,1.76
	c-2.77,2.77-4.54,4.28-6.55,5.04l-2.27,1.76l-2.52,2.77l-1.26,2.52c-0.76,2.77-2.02,5.29-3.28,7.31l-1.01,2.77l-0.5,3.78l0.25,2.77
	c0.25,0.5,0.5,2.02,0,5.29c-0.25,2.27-0.76,3.78-1.51,5.54l-0.76,2.52l-0.25,3.53l0.5,2.52c1.51,3.78,2.02,7.05,2.02,10.58
	c-0.25,1.76-0.76,3.78-1.26,5.29l-0.5,2.77l0.25,3.78l0.76,2.77c1.51,2.52,2.27,4.79,2.27,7.05
	C320.3,435.8,314,441.84,306.69,441.84L306.69,441.84z"/>
</svg>
