<?xml version="1.0" encoding="utf-8"?>
<!-- Generator: Adobe Illustrator 24.0.0, SVG Export Plug-In . SVG Version: 6.00 Build 0)  -->
<svg version="1.1" id="Layer_1" xmlns="http://www.w3.org/2000/svg" xmlns:xlink="http://www.w3.org/1999/xlink" x="0px" y="0px"
	 viewBox="0 0 566.93 566.93" style="enable-background:new 0 0 566.93 566.93;" xml:space="preserve">
<style type="text/css">
	.st0{fill:#E9EFF3;}
	.st1{fill:#9ACCEE;}
	.st2{fill:#405A9E;}
	.st3{fill:#405A9E;stroke:#405A9E;stroke-width:8;stroke-miterlimit:10;}
</style>
<path class="st0" d="M1.42,283.4c0,155.78,126.24,281.98,281.92,282.11S565.51,439.3,565.51,283.53v-0.13
	c0-155.78-126.24-281.98-282.05-281.98S1.42,127.62,1.42,283.4z"/>
<g id="XMLID_1_">
	<g>
		<path class="st1" d="M356.03,252.27c17.29,11.03,31.94,25.8,42.95,43.2c-11.01,17.39-25.66,32.16-42.95,43.19
			c-21.73,13.86-46.82,21.19-72.56,21.19c-25.74,0-50.84-7.32-72.56-21.19c-17.29-11.03-31.95-25.79-42.95-43.19
			c11.01-17.4,25.66-32.17,42.95-43.2c1.13-0.72,2.27-1.42,3.41-2.1c-2.86,7.85-4.42,16.34-4.42,25.18
			c0,40.63,32.94,73.57,73.57,73.57c40.64,0,73.58-32.94,73.58-73.57c0-8.85-1.56-17.33-4.42-25.18
			C353.77,250.85,354.91,251.55,356.03,252.27z"/>
		<path class="st2" d="M283.47,203.49c64.18,0,119.82,37.38,147.15,91.98c-27.34,54.59-82.97,91.97-147.15,91.97
			s-119.82-37.38-147.16-91.97C163.65,240.87,219.29,203.49,283.47,203.49z M398.98,295.47c-11.01-17.4-25.66-32.17-42.95-43.2
			c-1.12-0.72-2.26-1.42-3.4-2.1c2.86,7.85,4.42,16.33,4.42,25.18c0,40.63-32.94,73.57-73.58,73.57
			c-40.63,0-73.57-32.94-73.57-73.57c0-8.84,1.56-17.33,4.42-25.18c-1.14,0.68-2.28,1.38-3.41,2.1
			c-17.29,11.03-31.94,25.8-42.95,43.2c11,17.4,25.66,32.16,42.95,43.19c21.72,13.87,46.82,21.19,72.56,21.19
			c25.74,0,50.83-7.33,72.56-21.19C373.32,327.63,387.97,312.86,398.98,295.47z M283.47,267.88c0-15.24-12.36-27.6-27.6-27.6
			c-15.24,0-27.59,12.36-27.59,27.6c0,15.24,12.35,27.59,27.59,27.59C271.11,295.47,283.47,283.12,283.47,267.88z"/>
		<path class="st1" d="M255.87,240.28c15.24,0,27.6,12.36,27.6,27.6c0,15.24-12.36,27.59-27.6,27.59
			c-15.24,0-27.59-12.35-27.59-27.59C228.28,252.64,240.63,240.28,255.87,240.28z"/>
	</g>
	<g>
	</g>
</g>
<path class="st3" d="M421.39,218.92c-1.31,0.06-2.64-0.34-3.72-1.23c-96.1-78.84-198.5-47.35-267.48-7.05
	c-2.56,1.5-5.87,0.69-7.4-1.8c-1.53-2.49-0.69-5.72,1.87-7.22c47.91-27.99,94.76-42.56,139.25-43.31
	c50.82-0.85,98.17,16.41,140.71,51.32c2.28,1.87,2.57,5.19,0.64,7.41C424.26,218.22,422.84,218.85,421.39,218.92z"/>
</svg>
