<?xml version="1.0" encoding="utf-8"?>
<!-- Generator: Adobe Illustrator 24.0.0, SVG Export Plug-In . SVG Version: 6.00 Build 0)  -->
<svg version="1.1" id="Layer_1" xmlns="http://www.w3.org/2000/svg" xmlns:xlink="http://www.w3.org/1999/xlink" x="0px" y="0px"
	 viewBox="0 0 566.93 566.93" style="enable-background:new 0 0 566.93 566.93;" xml:space="preserve">
<style type="text/css">
	.st0{fill:#E9EFF3;}
	.st1{fill:#9ACCEE;stroke:#3E5A9E;stroke-width:10;stroke-miterlimit:10;}
	.st2{stroke:#3E5A9E;stroke-width:10;stroke-miterlimit:10;}
	.st3{fill:#3E5A9E;}
</style>
<path class="st0" d="M0.95,283.75C0.95,439.52,127.23,565.8,283,565.8s282.05-126.28,282.05-282.05S438.77,1.7,283,1.7
	S0.95,127.98,0.95,283.75z"/>
<path class="st1" d="M236.44,414.8h143.49c-12.65-47.69-8.91-84.02,11.25-109.01c33.73-43.37,35.88-91.56,5.9-134.39
	c-31.59-44.98-91.97-60.01-144.57-44.98c-50.34,14.38-74.24,50.43-71.76,108.16c-6.78,15-13.92,25.17-21.42,30.53
	c-13.92,10.17-16.6,22.48,8.03,33.73c1.07,3.21,0,5.35-3.21,7.49c-5.9,3.75-3.75,10.18,5.36,15.53c-8.57,6.43-6.96,19.28,7.49,21.42
	c-13.91,22.49,1.08,46.59,46.59,41.23C234.23,384.5,238.51,394.6,236.44,414.8L236.44,414.8z"/>
<path class="st2" d="M661.33,145.83"/>
<path class="st3" d="M219.19,309.62c5.97-0.49,14.94-1.48,25.78-3.66c10.59-2.13,11.88-3.18,24.82-6.1
	c8.03-1.82,19.2-4.34,33.42-6.1c18.79-2.33,19.45-0.42,23.87-3.66c11.33-8.3,11.72-24.31,21-25.64c3.54-0.51,7.97,1.18,9.55,4.88
	c2.54,5.98-2.98,15.8-11.46,30.52c-7.28,12.66-8.85,12.61-11.46,19.54c-3.05,8.12-3.35,15.7-3.82,30.52
	c-0.3,9.49-0.78,24.71,1.91,42.73c1.09,7.29,1.65,14.71,2.86,21.98c1.49,8.93,2.41,12.01,0.95,14.65c-2.72,4.92-12.17,5.52-17.19,0
	c-5.36-5.9-2.21-14.98-3.82-37.85c-0.47-6.67-2.22-16.66-5.73-36.63c-5.93-33.8-8.09-37.02-10.5-39.07c-4.16-3.54-12.69-2-29.6,1.22
	c-13.05,2.48-19.57,3.73-26.73,6.11c-16.08,5.34-22.92,10.78-28.64,6.1c-3.84-3.14-5.18-9.21-5.73-13.43"/>
</svg>
