<?xml version="1.0" encoding="utf-8"?>
<!-- Generator: Adobe Illustrator 24.0.0, SVG Export Plug-In . SVG Version: 6.00 Build 0)  -->
<svg version="1.1" id="Layer_1" xmlns="http://www.w3.org/2000/svg" xmlns:xlink="http://www.w3.org/1999/xlink" x="0px" y="0px"
	 viewBox="0 0 566.93 566.93" style="enable-background:new 0 0 566.93 566.93;" xml:space="preserve">
<style type="text/css">
	.st0{fill:#E9EFF3;}
	.st1{fill:#9ACCEE;stroke:#3F5A9E;stroke-width:10;stroke-miterlimit:10;}
	.st2{fill:#3F5A9E;}
</style>
<circle class="st0" cx="283.46" cy="283.46" r="282.05"/>
<path class="st1" d="M343.97,157.88c-13.86,13.12-23.1,43.72-11.55,69.96c2.31,4.37,2.31,6.56,4.62,10.94
	c4.61,10.94,0,20.86-4.62,27.42c-4.61,6.56-11.32,10.65-20.78,20.67c-9.46,10.01-11.54,15.3-16.17,21.86
	c-6.92,10.94-16.17,10.94-25.39,0l-6.93-13.12c-6.93-10.94-16.17-17.49-25.4-24.05c-5.37-4.08-8.13-11.35-8.24-21.85
	c-0.04-3.01,1.18-9.57,3.63-19.69c2.32-4.96,3.86-8.7,4.64-11.23c7.13-23.28,0.36-47.75-11.57-60.91
	c-20.78-21.86-43.86-28.41-69.27-17.49c-25.4,13.11-41.56,39.35-53.11,74.33c-6.92,24.05-4.61,48.1-2.31,72.14
	c2.31,34.97,11.54,65.58,25.4,94c11.54,21.86,27.7,39.35,48.49,45.91c13.85,4.37,25.39,2.19,36.95-13.12
	c9.24-13.11,13.85-30.6,16.17-50.28c0-17.47,0-32.78-11.55-41.53c-11.54-8.74-9.24-21.86,4.62-19.67
	c13.85,2.19,24.93,15.57,29.52,29.72c4.59,14.12,4.59,14.12,7.42,46.8c1.9,21.78,2.66,43.65,2.32,65.58h46.17
	c0-26.63,0.77-48.49,2.32-65.58c2.31-25.65,2.31-34.95,8.21-46.81c5.91-11.86,21.47-28.45,27.28-30.07
	c5.82-1.62,15.93,2.47,9.33,14.24c-6.61,11.77-10.2,15.83-10.2,39.5c0,23.68,2.31,47.19,18.47,64.68
	c4.62,4.37,11.54,8.75,18.47,8.75c4.62,0,11.54-2.19,16.17-4.37c23.08-8.75,36.93-28.42,48.49-56.84
	c11.53-26.24,16.17-52.47,20.78-83.07c2.31-24.05,2.31-48.1-4.62-74.33c-18.47-69.96-73.88-96.19-117.75-52.47L343.97,157.88z"/>
<path class="st2" d="M210,230.83c11.52,21.59,10.79,23.99,13.67,31.73c2.79,7.54,8.97,17.83,18.54,30.86h-19.5
	c-8.05,0-15.69,3.61-20.8,9.84c-5.35,6.52-9.65,13.83-12.76,21.67l-12.28,31.03v-22.09c0-15.91,5.14-31.39,14.65-44.14
	c-13.54,0-26.79,3.97-38.1,11.41l-18.19,11.96l1.16-2.26c12.58-23.95,37.85-38.49,64.88-37.33c-16.07-13.59-34.97-23.41-55.32-28.77
	l-10.73-2.83l1.76-0.2c22.06-2.5,44.38,1.37,64.31,11.16c-6.25-19.96-20.25-36.57-38.87-46.1l-10.46-5.35l10.65,0.24
	C182.52,202.12,200.63,213.27,210,230.83z"/>
<path class="st2" d="M357.64,230.83c9.37-17.56,27.48-28.71,47.38-29.16l10.66-0.24l-10.46,5.35c-18.62,9.53-32.63,26.14-38.87,46.1
	c19.93-9.79,42.25-13.67,64.31-11.16l1.75,0.2l-10.72,2.82c-20.36,5.36-39.26,15.19-55.34,28.79c27.03-1.17,52.3,13.37,64.88,37.33
	l1.19,2.25l-18.21-11.97c-11.31-7.44-24.56-11.4-38.1-11.4c9.51,12.75,14.65,28.23,14.66,44.14v22.09l-12.28-31.03
	c-3.11-7.84-7.41-15.15-12.77-21.67c-5.11-6.23-12.74-9.84-20.8-9.84h-19.5c9.57-13.03,15.75-23.32,18.56-30.86
	c2.88-7.73,2.14-10.14,13.67-31.74L357.64,230.83z"/>
</svg>
