<?xml version="1.0" encoding="utf-8"?>
<!-- Generator: Adobe Illustrator 24.0.0, SVG Export Plug-In . SVG Version: 6.00 Build 0)  -->
<svg version="1.1" id="Layer_1" xmlns="http://www.w3.org/2000/svg" xmlns:xlink="http://www.w3.org/1999/xlink" x="0px" y="0px"
	 viewBox="0 0 566.93 566.93" style="enable-background:new 0 0 566.93 566.93;" xml:space="preserve">
<style type="text/css">
	.st0{fill:#E9EFF3;}
	.st1{fill:#9ACCEE;}
	.st2{fill:#3E5A9E;}
</style>
<path class="st0" d="M1.42,283.46c0,155.77,126.28,282.05,282.05,282.05s282.05-126.28,282.05-282.05S439.23,1.42,283.46,1.42
	S1.42,127.69,1.42,283.46z"/>
<path class="st1" d="M475.24,206.52c-0.5-5.35-22.54-12.09-55.28-15.49S295.18,179.2,295.18,179.2s-56.47-13.54-86.94-16.37
	c-30.47-2.83-99.35,1.7-109.55,57.54C88.56,276.22,82.33,380.03,132,403.71c30.47,6.23,38.97-17.5,50.81-27.07
	c11.84-9.57,30.47-28.77,75.11-32.17c12.97-6.23,17.5-7.87,17.5-7.87l18.07,14.1l12.4-11.84c0,0,35.57-1.13,44.07-5.67
	c8.5-4.53,53.07-30.47,74.54-65.48S475.75,211.81,475.24,206.52"/>
<path class="st2" d="M165.07,248.53c3.65-5.41-1.07-9.76-1.07-9.76c17.38,2.2,23.29-11.27,23.29-11.27
	c7.3-19.58-10.7-23.11-10.7-23.11c-1.45,0.69-2.46-0.25-2.46-0.25c-10.45-4.6-19.26,0-19.26,0c-13.47,5.29-10.7,17.12-10.7,17.12
	c3.4,2.46,4.16,9.13,4.16,9.13c1.32,7.18,10.07,9,9.44,9.13c-9.95,1.51-3.65,10.89-3.65,10.89
	C159.22,256.84,165.07,248.53,165.07,248.53"/>
<path class="st2" d="M483.2,202.16c-4.47-16.49-35.89-18.89-42.31-19.2c-42.24-0.57-101.93-9.82-102.62-9.95
	c-2.27-0.31-5.04-0.5-8.12-0.5c-8.88,0-18.64,1.26-20.96,1.57c-19.01-1.26-54.46-13.28-54.9-13.47c-20.08-6.42-39.29-9.7-57.16-9.7
	c-54.96,0-89.9,30.97-100.16,61.7c-14.1,42.24-23.48,91.1,3.4,161.74c10.51,27.64,23.86,41.68,39.66,41.68c0.57,0,1.13,0,1.7-0.06
	c0.57,0.06,1.07,0.06,1.64,0.06c17.56,0,30.97-18.45,32.8-21.03c22.1-25.5,45.45-38.66,69.5-39.1c16.31-0.31,24.18-5.92,24.99-6.55
	l0.63-0.57c0.31-0.38,0.69-0.69,1.01-1.01l0.06,0.06l1.32-1.13c1.26-0.82,2.52-1.2,3.78-1.2c2.52,0,4.66,1.51,5.35,2.08
	c5.35,7.49,10.07,11.02,14.67,11.02c5.6,0,8.56-4.66,10.14-9.44c0.38-0.88,0.69-1.83,0.94-2.71l2.52,1.26l0.94,0.06
	c2.27,0.19,4.53,0.25,6.8,0.25c33.68,0,60.56-17.44,78.19-33.56c16.56-14.48,26.06-28.71,26.88-29.9l0.31-0.57
	c9.7-19.39,18.7-31.35,25.18-38.53c3.84-3.65,6.17-5.04,6.17-5.04l0.5-0.31c6.55-4.66,11.71-9.07,15.49-13.22
	C481.37,217.83,485.22,209.65,483.2,202.16 M454.74,227.34c-1.39,0.82-7.05,4.53-15.05,13.91c-7.11,7.49-16.81,20.21-27.26,40.92
	c-0.94,1.32-6.04,8.63-14.61,17.5c-16.62,16.37-43.94,36.45-78.26,36.45c-1.76,0-3.59-0.06-5.35-0.13l-5.98-3.02
	c-0.31-0.69-0.69-1.51-1.13-2.46c-0.94-2.2-1.45-4.47-1.89-6.99c-1.57-8.31-3.02-14.67-3.78-19.58c-0.69-4.6-1.26-9.38-1.95-14.23
	c-0.38-2.77-0.82-5.54-1.26-8.31c-0.44-2.64-0.94-5.29-1.45-7.93c-0.69-3.78-1.45-7.68-1.95-11.4c-2.46-16.81-4.28-31.92-1.95-46.65
	c0.82-5.16,2.58-10.14,5.23-14.67c0.44-0.76,1.01-1.76,1.64-2.9c0.94-1.7,3.21-5.98,5.16-8.37c1.26,0.13,2.46,0.25,3.59,0.31h0.44
	l0.44-0.06c0.13,0,10.64-1.51,19.64-1.51c2.2,0,4.41,0.13,6.61,0.38c0.57,0.06,59.49,9.25,101.23,9.82
	c11.96,0.63,30.47,4.66,32.3,11.46c0.25,1.01,0.38,3.71-3.4,8.5C463.12,220.98,459.53,223.94,454.74,227.34 M299.18,342.99
	c-0.44,1.83-1.07,3.34-1.57,3.97c-0.06,0-0.13-0.06-0.19-0.06c-0.13-1.07-0.25-2.2-0.31-3.34c-0.25-2.71-0.5-5.48-1.13-8.18
	c-1.39-5.98-3.97-10.51-8.18-14.67c-0.06-0.06-2.14-1.89-4.72-3.21c0.38-2.46,0.69-4.91,1.07-7.37c0.57-3.59,1.07-7.18,1.57-10.77
	c0.44-3.34,0.94-6.67,1.51-10.07c0.44-2.77,0.88-5.54,1.26-8.31l0.38,2.27c0.44,2.64,0.82,5.35,1.2,8c0.69,4.91,1.7,9.82,2.52,14.98
	c1.01,6.42,2.71,12.72,3.71,19.08c0.38,2.46,0.88,4.91,1.39,7.43c0.63,3.08,1.26,6.17,1.7,9.19
	C299.3,342.23,299.24,342.61,299.18,342.99 M281.49,328.2c0.31-1.13,0.5-2.33,0.5-3.53v-0.06c0.57,0.38,1.01,0.69,1.26,0.88
	c3.4,3.34,5.23,6.67,6.36,11.46c0.19,0.69,0.31,1.45,0.44,2.2l-0.38-0.44c-0.44-0.44-4.03-3.78-9.38-4.85
	C280.86,332.04,281.23,330.08,281.49,328.2 M289.99,195.48c-3.08,5.29-5.23,11.02-6.3,17.06c-1.95-5.98-4.53-11.77-7.74-17.25
	l-1.07-1.89c-2.2-3.78-4.47-7.74-7.49-11.14c-0.5-0.57-0.94-1.13-1.45-1.7c8.06,2.39,18.57,5.29,28.27,7.24
	c-0.94,1.7-1.83,3.46-2.77,5.16C290.8,193.91,290.36,194.79,289.99,195.48 M113.64,371.64c-25.06-65.92-16.31-111.5-3.15-150.91
	c8.88-26.63,39.73-53.51,88.71-53.51c14.98,0,31.1,2.52,47.91,7.43c3.27,2.52,6.36,6.23,9.32,9.88c1.26,1.51,2.52,3.02,3.78,4.47
	c2.39,2.71,4.28,6.04,6.36,9.57l1.13,1.95c5.16,8.88,8.56,18.76,10.07,28.96c1.26,9.32,2.64,20.15,2.64,31.42
	c0,8.81-1.39,17.88-2.77,26.69c-0.5,3.46-1.07,6.86-1.51,10.26c-0.5,3.53-1.01,7.05-1.57,10.58c-0.44,2.9-0.88,5.79-1.26,8.63
	c-0.13,1.13-0.31,2.33-0.44,3.59c-0.13,1.07-0.25,2.14-0.44,3.27v0.13c-0.06,0.63-0.19,1.26-0.25,1.89
	c-0.19,0.57-0.57,1.13-1.01,1.64c-2.46,2.71-8,4.16-12.15,4.16c-4.28,0-8.5-0.38-13.03-0.82c-6.55-0.63-13.35-1.26-20.34-0.57
	c-16.49,1.64-31.79,7.49-40.99,15.68c-10.77,9.57-17.56,23.86-22.35,35.26c-0.69,1.64-1.32,3.27-1.95,4.91
	c-1.39,3.59-2.9,7.3-4.6,10.58c-1.51,2.77-2.77,4.16-5.1,5.67c-0.5,0.31-0.94,0.63-1.45,0.94c-2.71,1.39-5.6,2.27-8.56,2.39
	C128.25,403.43,119.18,386.24,113.64,371.64 M259.83,341.67c-3.27,1.2-8.31,2.39-15.24,2.52c-24.74,0.44-48.6,12.4-71.08,35.51
	c4.16-9.19,9.7-19.26,17.38-26.13c7.74-6.93,21.03-11.9,35.63-13.28c6.11-0.57,12.15-0.06,18.57,0.57
	c4.47,0.44,9.19,0.88,13.85,0.88C259.2,341.67,259.51,341.67,259.83,341.67"/>
</svg>
