<?xml version="1.0" encoding="utf-8"?>
<!-- Generator: Adobe Illustrator 24.0.0, SVG Export Plug-In . SVG Version: 6.00 Build 0)  -->
<svg version="1.1" id="Layer_1" xmlns="http://www.w3.org/2000/svg" xmlns:xlink="http://www.w3.org/1999/xlink" x="0px" y="0px"
	 viewBox="0 0 566.93 566.93" style="enable-background:new 0 0 566.93 566.93;" xml:space="preserve">
<style type="text/css">
	.st0{fill:#E9EFF4;}
	.st1{fill:#3C5A9A;}
	.st2{fill:#9ACCEE;}
</style>
<path class="st0" d="M1.42,283.46c0,155.77,126.28,282.05,282.05,282.05s282.05-126.28,282.05-282.05S439.23,1.42,283.46,1.42
	S1.42,127.69,1.42,283.46z"/>
<path class="st1" d="M428.4,418.26c-0.57,2.83-3.4,4.53-5.61,4.53h-1.7c-1.13,0-26.45-6.24-53.47-16.44
	c-38.29-14.17-58.01-27.78-60.21-41.89c-2.83-17.57-3.4-65.69-2.83-101.91l-16.88-6.24h-8.44l-16.88,6.24
	c0.57,35.65,0.57,84.4-2.83,101.91c-2.27,14.17-21.98,27.78-60.21,41.89c-26.45,9.64-52.34,15.87-53.47,16.44h-1.7
	c-2.83,0-5.04-1.7-5.61-4.53c-1.13-3.97-30.42-102.48,2.83-174.97c24.75-54.36,55.74-87.17,82.76-87.17
	c5.61,0,10.14,1.13,14.61,3.97c21.98,13.6,22.55,55.49,23.05,60.59c0,1.7,0.57,13.04,0.57,28.85l9.01-3.4V124.37
	c0-3.4,2.83-6.24,6.17-6.24h12.41c3.4,0,6.17,2.83,6.17,6.24v121.75l9.01,3.4c0-16.44,0.57-27.78,0.57-29.41
	c0-4.53,1.13-46.99,22.55-60.02c4.53-2.83,9.57-3.97,14.61-3.97c27.02,0,58.01,32.82,82.76,87.17
	C458.76,315.15,429.53,414.29,428.4,418.26L428.4,418.26z"/>
<path class="st2" d="M412.32,407.17h-1.32c-0.88,0-20.6-4.79-41.57-12.66c-29.79-10.9-42.89-20.72-44.66-31.62
	c-2.2-13.48-2.52-70.8-2.08-98.63l-33.7-6.87h-6.55l-37.35,6.68c0.44,27.46,0.44,79.36-2.2,92.84c-1.76,10.9-14.42,23.3-44.15,34.2
	c-20.6,7.43-40.69,12.22-41.57,12.66h-1.32c-2.2,0-3.97-1.32-4.41-3.46c-0.88-3.02-23.18-88.05,2.65-143.86
	c19.27-41.82,43.14-76.4,64.18-76.4c4.41,0,9.45-2.2,12.91,0c17.07,10.46,13.48,55.49,13.92,59.39v14.68l36.53-4.47V138.54
	c0-2.65-2.65-4.79,0-4.79h2.58c2.65,0,1.83,2.2,1.83,4.79v110.98l37.1,4.72c0-12.66-0.44-10.33-0.44-11.65
	c0-3.46-2.14-49.57,14.49-59.58c3.53-2.2,7.43-3.02,11.4-3.02c21.04,0,44.47,38.74,63.74,80.56c25.82,55.36,5.23,140.14,4.41,143.17
	C416.28,405.85,414.08,407.17,412.32,407.17L412.32,407.17z"/>
<path class="st1" d="M368.84,273.06l-12.28,9.64l-28.97-14.99l25.01-18.83c2.46-1.95,2.96-4.85,1.01-7.24
	c-1.95-2.39-4.91-2.9-7.37-0.94l-7.87,5.79l-0.5-6.3c-0.5-2.9-2.96-4.85-5.86-4.85c-2.96,0.5-4.91,2.9-4.91,5.79l1.45,12.09
	l-11.27,8.19l-14.74-7.75c-2.46-1.45-5.86-0.5-7.37,2.39c-1.45,2.39-0.5,5.79,2.46,7.24l37.79,19.34v15.43l-2.96,9.2l-7.37,6.74
	c-1.95,1.95-1.95,5.29,0,7.24c1.01,0.94,2.46,1.45,3.91,1.45c1.45,0,2.46-0.5,3.91-1.45l7.87-7.24l8.82,9.64
	c1.01,0.94,2.46,1.95,3.91,1.95c1.45,0,2.46-0.5,3.46-1.45c1.95-1.95,2.46-5.29,0.5-7.24l-11.27-12.09v-16.44l20.6,10.64
	c1.01,0.5,1.45,0.5,2.46,0.5c1.95,0,3.91-0.94,4.91-2.9c1.45-2.39,0.5-5.79-2.46-7.24l-4.41-2.39l8.31-6.74
	c2.46-1.95,2.46-5.29,1.01-7.24C374.26,271.62,371.3,271.11,368.84,273.06L368.84,273.06z M264.6,252.85l-14.93,7.31l-10.96-7.75
	l1.51-11.4c0.5-2.77-2.02-5.04-4.98-5.48c-2.96-0.44-5.48,1.83-5.98,4.6l-0.5,5.92l-7.94-5.48c-2.46-1.83-5.98-1.39-7.43,0.94
	c-2.02,2.27-1.51,5.48,1.01,6.87l25.38,17.82l-29.35,14.17l-12.41-9.13c-2.46-1.83-5.48-1.39-7.43,0.94
	c-2.02,2.27-1.51,5.04,1.01,6.87l8.44,6.42l-4.47,2.27c-2.46,1.39-3.46,4.09-2.46,6.87c1.01,1.83,2.96,2.77,4.98,2.77
	c1.01,0,1.51,0,2.46-0.44l20.85-10.08v15.56l-11.9,9.57c-2.02,1.83-2.02,5.04,0.5,6.87c1.01,0.94,2.46,1.39,3.46,1.39
	c1.51,0,2.96-0.44,3.97-1.83l8.94-9.13l7.94,6.87c1.01,0.94,2.46,1.39,3.97,1.39c1.51,0,2.96-0.44,3.97-1.39
	c2.02-1.83,2.02-5.04,0-6.87l-7.94-6.42l-2.96-8.25v-14.8l38.29-18.27c2.46-1.39,3.46-4.09,2.46-6.87
	C270.52,252.4,267.06,251.46,264.6,252.85L264.6,252.85z"/>
</svg>
