<?xml version="1.0" encoding="utf-8"?>
<!-- Generator: Adobe Illustrator 24.0.0, SVG Export Plug-In . SVG Version: 6.00 Build 0)  -->
<svg version="1.1" id="Layer_1" xmlns="http://www.w3.org/2000/svg" xmlns:xlink="http://www.w3.org/1999/xlink" x="0px" y="0px"
	 viewBox="0 0 566.93 566.93" style="enable-background:new 0 0 566.93 566.93;" xml:space="preserve">
<style type="text/css">
	.st0{fill:#E9EFF3;}
	.st1{fill:#405A9E;}
	.st2{fill:#9ACCEE;}
</style>
<path class="st0" d="M1.42,283.46c0,155.75,126.29,282.05,282.05,282.05s282.05-126.29,282.05-282.05S439.33,1.42,283.57,1.42
	S1.42,127.71,1.42,283.46z"/>
<path class="st1" d="M328.38,466.73c-49.39-11.05-57.3-38.34-54.81-60.01c-1.41-4.44-1.73-8.88-1.19-13.21
	c0.87-6.5,4.44-15.81,16.68-23.07c8.67-5.31,15.27-11.59,19.06-17.98c-9.53-1.84-17.65-6.93-24.26-15.16
	c-7.15-8.99-12.13-21.55-15.38-38.23c-8.99-4.87-17.98-7.37-26.54-7.37c-1.73,0-3.47,0.11-5.2,0.32c-7.69,0.87-15.71,3.9-23.83,9.1
	c0.76,5.63,0.65,11.81-0.32,18.41v0.11c-1.84,11.48-9.64,25.78-35.53,31.63c0,9.86,3.25,19.28,9.75,28.49
	c2.38-0.32,4.66-0.54,6.93-0.54c10.61,0,25.35,4.01,35.31,22.96l0.11,0.22l0.11,0.22c8.45,18.63,9.1,35.53,1.95,51.77l-2.38,5.52
	l-5.96-0.54c-20.47-1.95-35.31-8.67-44.19-19.93c-7.8-9.86-10.83-23.07-9.1-39.1c-14.95-18.41-21.01-38.34-17.87-59.36
	c-2.38-6.61-3.9-12.67-4.77-18.41c-17.22-1.73-30.22-8.23-38.56-19.5l-0.11-0.11c-4.12-5.63-2.92-13.76,2.71-17.98l0.22-0.22
	c2.17-1.62,4.87-2.49,7.58-2.49c4.01,0,7.91,1.95,10.4,5.09l0.11,0.11c3.79,5.2,10.51,8.23,19.93,9.21
	c4.55-11.48,14.19-19.82,28.7-24.7c2.06-9.21,1.73-16.57-0.87-21.88c-0.87-1.73-2.06-3.36-3.47-4.77c-9.31,4.33-20.69,6.5-34.34,6.5
	l-9.31-0.11v-8.34c0.32-50.58,27.94-63.47,52.86-64.77c12.56-16.46,21.99-35.2,28.05-55.67v-0.22c1.73-5.52,6.72-9.21,12.46-9.21
	c1.3,0,2.6,0.22,3.9,0.65c3.25,1.08,5.96,3.25,7.58,6.28c1.73,3.14,2.06,6.61,0.97,9.96c-2.71,9.1-5.96,17.98-9.75,26.21v0.76
	c0.32,11.16,3.03,21.77,7.91,31.63h1.08c18.09,0,33.58,8.34,40.4,21.77c3.68,7.26,7.8,21.88-4.12,41.16
	c3.57,6.28,7.58,12.13,12.13,17.87c-0.97-18.2,3.57-35.96,13.43-52.97c-2.92-20.47,0.11-37.26,9.1-49.93
	c8.77-12.35,23.07-20.58,42.57-24.7c3.57-9.75,5.96-20.15,7.26-31.52c0.65-6.61,6.28-11.7,12.89-11.7c0.54,0,0.97,0,1.52,0.11
	c3.47,0.32,6.61,2.06,8.77,4.77c2.17,2.71,3.14,6.28,2.82,9.75c-1.62,14.51-5.09,28.59-10.18,41.7c5.42,17.11,4.66,31.95-2.27,44.08
	c-8.23,14.51-25.02,24.91-50.04,30.76c-7.58,13.11-10.72,26.32-9.64,40.08c10.4,0.54,19.17,3.36,26.32,8.45
	c7.8,4.87,13.54,11.16,16.9,18.85c4.44-0.65,8.67-1.52,12.78-2.6c2.49-13.21,10.51-24.05,24.7-33.69
	c10.29-6.93,20.47-10.51,30.22-10.51c2.82,0,5.63,0.32,8.34,0.87c2.82-3.79,5.52-7.8,8.02-12.02c2.38-4.01,6.5-6.28,11.16-6.28
	c2.38,0,4.66,0.65,6.72,1.84l0.11,0.11c5.85,3.68,7.91,11.37,4.66,17.55l-0.11,0.22l-0.11,0.22c-5.74,9.53-12.13,18.3-19.17,25.89
	c-13.21,30.65-34.12,37.04-49.39,37.04c-1.73,0-3.57-0.11-5.42-0.22c-9.31,3.36-19.06,5.85-29.35,7.37
	c-0.54,4.98-1.62,10.29-3.36,15.81l-1.08,3.47l-3.25,1.62c-4.01,1.95-7.91,3.68-11.59,4.98c-1.3,6.39-3.79,12.56-7.47,18.52
	c-5.74,8.99-14.19,17.11-25.35,24.05c11.16,3.03,21.01,9.31,29.35,18.85l0.22,0.22l0.11,0.22c12.02,15.71,13.32,33.47,3.57,51.34
	l-3.03,5.52L328.38,466.73L328.38,466.73z M193.64,228.01c2.82,3.03,5.2,6.5,7.04,10.29c5.2,10.51,6.28,23.18,3.14,37.8
	c9.86-5.52,19.93-8.88,30-10.07c2.71-0.32,5.42-0.43,8.12-0.43c2.49,0,4.98,0.11,7.47,0.43c-0.54-0.97-1.08-1.84-1.62-2.82
	c-18.09-5.63-37.04-20.15-33.79-56.54c-3.03-5.2-5.52-10.51-7.58-16.03c-1.41,2.06-2.92,4.01-4.44,5.96
	C201.76,209.05,198.95,219.56,193.64,228.01z"/>
<path class="st2" d="M450.33,242.86c-2.27-1.41-5.09-0.65-6.5,1.62c-3.79,6.28-7.69,11.91-12.02,17.33
	c-11.37-4.33-23.72-2.06-37.04,6.93c-13.65,9.21-20.9,19.17-21.77,33.25c-8.23,2.49-16.9,4.22-26,5.09
	c-2.17-8.99-7.37-15.92-15.81-21.01c-7.26-5.31-16.9-7.69-29.03-7.04c-3.57-19.39,0.32-37.8,11.59-55.78
	c45.06-9.53,61.31-32.17,48.74-67.91c5.42-13.21,9.1-27.29,10.83-42.35c0.32-2.6-1.62-4.98-4.22-5.2c-2.6-0.32-4.98,1.62-5.2,4.22
	c-1.62,13.54-4.66,26.1-9.42,38.02c-39.43,6.61-55.78,29.57-49.07,69c-12.02,19.6-16.25,39.97-12.56,61.2
	c-3.25,0.54-6.72,1.3-10.18,2.06c-8.23-9.1-15.27-19.06-21.01-30.22c23.29-32.06-0.65-57.3-32.39-53.72
	c-7.15-12.46-10.94-25.89-11.37-40.08c0-0.65-0.22-1.41-0.43-1.95c4.22-8.88,7.69-18.2,10.61-27.73c0.76-2.49-0.65-5.09-3.14-5.96
	c-2.49-0.87-5.09,0.65-5.96,3.14c-6.72,22.75-17.44,43.43-31.84,61.52c-32.17,0.11-48.42,18.85-48.63,56.65
	c15.27,0.11,27.19-2.6,36.18-8.12c4.55,2.92,7.8,6.72,9.96,11.05c4.01,8.12,4.12,18.85,0.32,32.17
	c-16.9,4.55-26.86,13.43-29.57,26.75c-15.49-0.11-26.54-4.44-32.71-12.89c-1.62-2.06-4.55-2.49-6.61-0.97
	c-2.06,1.62-2.49,4.55-0.97,6.61c7.91,10.72,21.23,16.25,39.53,16.57c0.22,7.47,2.17,15.92,5.63,25.45
	c-3.68,20.47,2.38,39.64,18.09,57.62c-4.77,32.28,10.4,50.15,45.38,53.4c5.96-13.43,5.96-27.84-1.95-45.06
	c-8.34-15.71-21.12-21.34-38.45-17.11c-11.48-14.19-16.14-29.03-14.08-44.62c21.12-3.14,32.82-11.81,35.09-25.89
	c1.08-7.8,0.87-14.84-0.65-21.01c10.72-7.69,21.34-12.24,32.06-13.54c13.11-1.52,26.54,1.84,40.08,9.96
	c6.17,36.07,20.69,52.97,43.76,51.02c-1.95,11.91-11.26,23.61-26.32,32.82c-7.47,4.44-11.81,10.07-12.78,16.9
	c-0.43,3.68,0,7.37,1.52,11.37c-4.01,27.08,12.02,44.62,48.09,52.75c8.23-15.06,7.26-29.14-2.82-42.24
	c-10.07-11.59-22.64-17.66-37.26-18.09c-0.11-0.76,0-1.73,0-2.38c0.43-3.9,3.14-7.15,8.23-9.96h0.11
	c10.72-6.5,18.85-13.97,24.26-22.42c4.12-6.5,6.5-13.43,7.04-20.36c4.77-1.41,9.86-3.36,15.38-6.17c2.27-7.58,3.36-14.51,3.36-20.8
	c13-1.41,25.02-4.22,36.18-8.45c22.31,2.71,38.56-8.34,48.74-32.93c7.04-7.47,13.43-16.03,19.06-25.56
	C453.25,247.09,452.49,244.16,450.33,242.86L450.33,242.86z M234.46,274.49c-11.59,1.41-23.18,6.07-34.55,13.86
	c-1.62-2.82-3.68-5.42-6.07-7.69c4.33-15.49,4.01-28.27-0.97-38.45c-2.49-4.98-6.17-9.42-10.94-13
	c7.69-8.23,11.59-20.04,11.37-35.31c5.96-7.37,11.26-15.16,16.03-23.18c1.95,12.02,6.28,23.5,12.89,34.23
	c-3.25,28.16,7.04,45.38,30.87,51.34c4.12,7.69,8.77,15.06,13.86,21.77c0.32,0.43,0.65,0.87,1.08,1.41
	C256.77,275.03,245.62,273.3,234.46,274.49z"/>
</svg>
