<?xml version="1.0" encoding="utf-8"?>
<!-- Generator: Adobe Illustrator 24.0.0, SVG Export Plug-In . SVG Version: 6.00 Build 0)  -->
<svg version="1.1" id="Layer_1" xmlns="http://www.w3.org/2000/svg" xmlns:xlink="http://www.w3.org/1999/xlink" x="0px" y="0px"
	 viewBox="0 0 566.93 566.93" style="enable-background:new 0 0 566.93 566.93;" xml:space="preserve">
<style type="text/css">
	.st0{fill:#E9EFF3;}
	.st1{fill:#9ACCEE;}
	.st2{fill:#415B9F;}
</style>
<path class="st0" d="M1.42,283.4c0,155.78,126.24,281.98,281.92,282.11S565.51,439.3,565.51,283.53v-0.13
	c0-155.78-126.24-281.98-282.05-281.98S1.42,127.62,1.42,283.4z"/>
<g id="XMLID_1_">
	<g>
		<path class="st1" d="M397.54,319.85c6.83,11.73,6.75,18.89,6.51,21.06c-1,1.29-2.43,2.17-4.02,2.49
			c-1.02-0.04-1.99-0.44-2.73-1.13c-6.27-12.98-4.46-18.44-4.42-18.48C394.75,322.89,396.36,321.54,397.54,319.85z"/>
		<path class="st1" d="M402.32,372.37c-1.51,0.58-3.17,0.58-4.66,0c-0.78-0.54-1.37-1.33-1.65-2.21c0.6-13.26,4.62-18.04,5.26-18.73
			c1.89-0.26,3.72-0.94,5.3-2.01c1.02,7.86-0.42,15.83-4.14,22.82L402.32,372.37z"/>
		<path class="st1" d="M386.29,395.48c1.33-5.91,4.24-11.31,8.44-15.67c1.47,0.62,3.05,0.92,4.66,0.92c0.78,0.06,1.57,0.06,2.37,0
			l-0.04,0.08c-1.33,6.91-4.62,13.28-9.48,18.36c-1.65,0.26-3.32-0.1-4.7-1C386.81,397.45,386.37,396.48,386.29,395.48z"/>
		<path class="st1" d="M378.37,302.41c0.84-0.66,1.61-1.45,2.25-2.33c1-1.45,1.69-3.11,1.97-4.86c8.96,8.56,9.8,15.51,9.89,17.24
			c-0.5,1.61-1.55,2.99-2.97,3.9l-0.16,0.12c-0.96,0.34-1.99,0.34-2.93,0C379.78,310.05,378.37,305.1,378.37,302.41z"/>
		<path class="st1" d="M371.54,296.75c-7.88-1.04-14.89-5.44-19.25-12.06v-0.28c0.28-1.13,0.38-2.29,0.32-3.46h0.24
			c14.1,0.52,20.09,7.31,21.7,9.12c0.5,1.65,0.38,3.46-0.36,5.02l-0.16,0.08C373.41,295.98,372.53,296.52,371.54,296.75z"/>
		<path class="st1" d="M323.04,280.83c0.56-1.59,0.78-3.27,0.64-4.94h0.48c6.49-0.62,13.04,0.08,19.25,2.09
			c0.86,1.27,1.25,2.81,1.08,4.34l-0.12,0.12c-0.3,0.96-0.92,1.81-1.77,2.37c-6.65,1.73-13.7,0.72-19.57-2.81l-0.32-0.24
			C322.72,281.46,322.82,281.15,323.04,280.83z"/>
		<path class="st1" d="M293.55,276.05c1.04-1.43,1.83-3.03,2.33-4.74h0.32c6.21-0.42,12.44,0.54,18.24,2.85
			c0.88,1.23,1.33,2.73,1.21,4.26h-0.28c-0.34,0.94-0.98,1.77-1.85,2.29c-6.89,1.04-13.92-0.54-19.69-4.42L293.55,276.05z"/>
		<path class="st1" d="M288.6,265.96c-0.04,1.85-0.5,3.7-1.37,5.34c-6.23-3.05-12.82-7.8-13.14-10.45c0-0.4,0.32-0.92,1.08-1.53
			c0.96-0.86,2.19-1.37,3.5-1.41h0.92C283.3,258.65,287,263.43,288.6,265.96z"/>
		<path class="st1" d="M270.68,204.72c-8.1,8.88-11.91,20.86-10.49,32.79c-6.71-6.87-14.91-13.38-23.39-15.23
			c-1.61-0.36-3.23-0.52-4.86-0.52c-1.59-0.02-3.17,0.16-4.7,0.52c-0.86-7.53-3.64-14.73-8.04-20.9
			c5.42-6.19,10.09-13.02,13.86-20.33l12.42,1.29c5.79,2.11,11.87,3.34,18.04,3.62c-0.8,5.08,0.2,10.31,2.85,14.75
			C267.51,202.33,268.97,203.7,270.68,204.72z"/>
		<path class="st2" d="M397.54,319.85c-1.19,1.69-2.79,3.03-4.66,3.94c-0.04,0.04-1.85,5.51,4.42,18.48
			c0.74,0.68,1.71,1.08,2.73,1.13c1.59-0.32,3.01-1.21,4.02-2.49C404.29,338.74,404.37,331.59,397.54,319.85z M401.28,351.44
			c-0.64,0.68-4.66,5.47-5.26,18.73c0.28,0.88,0.86,1.67,1.65,2.21c1.49,0.58,3.15,0.58,4.66,0l0.12-0.12
			c3.72-6.99,5.16-14.97,4.14-22.82C405,350.49,403.17,351.17,401.28,351.44z M394.73,379.81c-4.2,4.36-7.11,9.76-8.44,15.67
			c0.08,1,0.52,1.97,1.25,2.69c1.39,0.9,3.05,1.27,4.7,1c4.86-5.08,8.16-11.45,9.48-18.36l0.04-0.08c-0.8,0.06-1.59,0.06-2.37,0
			C397.78,380.73,396.2,380.43,394.73,379.81z M392.48,312.46c-0.08-1.73-0.92-8.68-9.89-17.24c-0.28,1.75-0.96,3.42-1.97,4.86
			c-0.64,0.88-1.41,1.67-2.25,2.33c0,2.69,1.41,7.63,8.04,14.06c0.94,0.34,1.97,0.34,2.93,0l0.16-0.12
			C390.93,315.45,391.98,314.06,392.48,312.46z M374.56,290.07c-1.61-1.81-7.59-8.6-21.7-9.12h-0.24c0.06,1.17-0.04,2.33-0.32,3.46
			v0.28c4.36,6.61,11.37,11.01,19.25,12.06c0.98-0.22,1.87-0.76,2.49-1.57l0.16-0.08C374.94,293.53,375.06,291.72,374.56,290.07z
			 M324.17,275.89h-0.48c0.14,1.67-0.08,3.36-0.64,4.94c-0.22,0.32-0.32,0.62-0.32,0.92l0.32,0.24c5.87,3.54,12.92,4.54,19.57,2.81
			c0.84-0.56,1.47-1.41,1.77-2.37l0.12-0.12c0.16-1.53-0.22-3.07-1.08-4.34C337.21,275.97,330.66,275.27,324.17,275.89z
			 M295.88,271.31c-0.5,1.71-1.29,3.32-2.33,4.74l0.28,0.24c5.77,3.88,12.8,5.47,19.69,4.42c0.86-0.52,1.51-1.35,1.85-2.29h0.28
			c0.12-1.53-0.32-3.03-1.21-4.26c-5.81-2.31-12.04-3.28-18.24-2.85H295.88z M287.24,271.31c0.86-1.65,1.33-3.5,1.37-5.34
			c-1.61-2.53-5.3-7.31-9-8.04h-0.92c-1.31,0.04-2.53,0.54-3.5,1.41c-0.76,0.6-1.08,1.13-1.08,1.53
			C274.42,263.51,281.01,268.25,287.24,271.31z M270.68,204.72c-1.71-1.02-3.17-2.39-4.3-4.02c-2.65-4.44-3.66-9.66-2.85-14.75
			c-6.17-0.28-12.26-1.51-18.04-3.62l-12.42-1.29c-3.78,7.31-8.44,14.14-13.86,20.33c4.4,6.17,7.17,13.36,8.04,20.9
			c1.53-0.36,3.11-0.54,4.7-0.52c1.63,0,3.25,0.16,4.86,0.52c8.48,1.85,16.68,8.36,23.39,15.23
			C258.77,225.58,262.58,213.6,270.68,204.72z M280.97,205.93c-0.96,0.68-22.18,15.95-8.52,45.13v0.2c2.61-1.43,5.65-1.89,8.56-1.29
			c8.24,1.69,13.9,11.01,14.91,12.82h0.36c7.61-0.24,15.19,1.13,22.26,4.02l1.13,0.48l0.76,1.21h0.24
			c10.45-2.97,25.92,2.21,26.52,2.41l1.13,0.4l0.72,0.8l0.36,0.48h0.24c10.53-0.26,20.78,3.38,28.81,10.21l0.36,0.24
			c15.11,10.17,19.81,19.73,21.22,25.28c5.75,7.66,9.72,16.5,11.65,25.88c4.04,12.2,3.94,25.4-0.32,37.53
			c-3.7,27.12-14.51,34.4-15.75,35.16l-0.72,0.44h-0.8c-1.02,0.14-2.07,0.22-3.09,0.24c-1.47,0-2.93-0.18-4.34-0.56
			c-2.05,2.33-4.34,4.42-6.83,6.23c-12.98,8.08-46.49,36.61-46.81,36.89c-9.76,8.6-18.65,12.94-26.4,12.94h-1.45
			c-1.02-0.08-2.03-0.24-3.01-0.48c-1.33,1-2.89,1.61-4.54,1.75c-4.74,0.38-8.9-3.15-9.28-7.88c-0.38-4.74,3.15-8.88,7.9-9.26
			c4.72-0.38,8.88,3.13,9.26,7.88c4.46,0.32,11.85-1.89,22.22-10.97c0.96-0.84,12.06-10.33,24.11-20.09
			c-17.22,2.85-34.7,3.84-52.12,2.97c-3.21-0.24-6.31,0-9.28,0v0.36c-0.24,0.8-4.86,15.75-15.39,22.46
			c-0.12,1.67-0.74,3.27-1.77,4.62c-2.89,3.76-8.3,4.46-12.06,1.57c-3.78-2.89-4.48-8.28-1.59-12.06c2.91-3.76,8.3-4.46,12.08-1.57
			c4.48-3.86,7.94-8.8,10.01-14.35c-14.51,1.85-28.33,7.27-40.22,15.79c0.34,1.67,0.2,3.42-0.44,5c-1.79,4.4-6.81,6.53-11.21,4.74
			c-4.4-1.79-6.53-6.79-4.74-11.19c1.79-4.4,6.81-6.53,11.21-4.74c8.18-6.09,17.36-10.71,27.12-13.66
			c-5.67-2.87-10.97-6.39-15.83-10.45c-1.69,0.44-3.46,0.38-5.1-0.18c-4.48-1.57-6.83-6.47-5.28-10.95
			c1.57-4.5,6.47-6.85,10.97-5.28c4.48,1.57,6.85,6.47,5.28,10.95c5.63,4.34,17.08,12.38,26,12.38c5.53-0.82,11.11-1.23,16.72-1.21
			h12.1c-7.66-4.94-16.19-8.3-25.16-9.89c-0.96,1.43-2.35,2.55-3.96,3.19c-4.42,1.79-9.46-0.36-11.23-4.8
			c-1.79-4.42,0.36-9.44,4.78-11.23c4.44-1.77,9.46,0.36,11.25,4.8c10.15,1.71,19.83,5.49,28.49,11.09
			c-1.67-4.68-2.23-9.66-1.65-14.59c-1.27-1.11-2.19-2.55-2.63-4.16c-1.31-4.6,1.37-9.36,5.97-10.67c4.1-1.15,8.38,0.86,10.15,4.6
			c0.2,0.44,0.36,0.88,0.5,1.37c1.31,4.58-1.37,9.36-5.95,10.67c-0.58,5,0.86,10.01,4.02,13.94c3.9,3.44,9.08,5.08,14.27,4.54
			c4.82-0.46,9.62-1.19,14.39-2.13c-5.91-5.55-9.4-13.18-9.76-21.26c-0.1-0.96-0.34-1.89-0.72-2.77c-1.27,0.68-2.69,1.04-4.14,1.06
			c-3.86,0-7.11-2.53-8.22-6.03c-0.24-0.82-0.38-1.69-0.38-2.57c-0.02-4.74,3.82-8.6,8.58-8.6c4.74-0.02,8.6,3.82,8.62,8.58
			c2.47,2.65,3.96,6.07,4.26,9.68c0.34,3.64,1.51,7.15,3.38,10.29c0.08-1.55,0.44-3.05,1.08-4.46c0.76-1.57,1.87-2.93,3.21-4.02
			c0.04-1.55,0.5-3.03,1.33-4.32c2.55-4.04,7.88-5.24,11.91-2.69s5.24,7.88,2.69,11.91s-7.9,5.24-11.91,2.69
			c-0.68,3.09-0.02,6.35,1.85,8.92v0.24c6.65-2.11,12.68-5.83,17.52-10.85c-1.39-2.15-2.13-4.64-2.09-7.19v-1
			c1.73-7.19,5.28-13.82,10.33-19.25c-0.46-0.88-0.82-1.81-1.04-2.77v-1.04c-0.32-7.59,1.35-15.13,4.86-21.86
			c-0.78-0.54-1.51-1.19-2.13-1.89l-0.56-0.84c-5.42-11.17-5.91-18.12-5.42-22.14c-0.86-0.24-1.69-0.56-2.45-0.96l-0.84-0.6
			c-5.51-4.58-9.32-10.85-10.85-17.84c-9.16-1.13-17.46-5.99-22.91-13.42c-0.54,0.38-1.11,0.74-1.69,1.04l-0.96,0.32
			c-2.97,0.62-5.99,0.94-9,0.96c-6.57,0.2-13-1.75-18.32-5.59l-1.04,0.56l-1,0.28c-2.11,0.26-4.22,0.36-6.31,0.28
			c-9.26,0.04-18.16-3.58-24.75-10.05c-4.42-2.05-17.4-9-18.44-17.04c-0.18-1.37-0.02-2.73,0.44-4.02
			c-6.31-9.08-19.53-25.07-31.3-27.65c-2.63-0.62-5.36-0.4-7.84,0.68h-0.2c-4.58,3.7-9.56,6.87-14.83,9.48v0.28
			c-3.09,4.3-3.96,9.83-2.33,14.87l-7.35,3.21c-1.65-4.36-1.93-9.1-0.8-13.62l-2.61,0.8c-9.24,17.8-19.65,23.43-20.09,23.67
			l-1.85-3.54l-1.89-3.54c5.47-3.74,10.01-8.66,13.26-14.43l-3.62,0.36c-5.65,1.41-10.79,4.42-14.79,8.64l-6.07-5.22
			c2.41-2.79,5.3-5.14,8.52-6.95c-3.19-1.47-5.97-3.72-8.04-6.55l3.38-2.17l3.38-2.17c3.5,3.68,8.2,5.99,13.26,6.51
			c4.52-0.34,9-1.21,13.34-2.57c-2.93-2.81-6.47-4.9-10.33-6.11l2.05-7.76c6.31,1.89,11.91,5.65,16.07,10.77
			c4.66-2.21,9.08-4.9,13.18-8.04c0.22-8.48-2.63-16.74-8.04-23.27c-3.38-0.26-6.69-0.98-9.85-2.17c-5.53-0.42-11.07-0.42-16.6,0
			c-12.86,2.69-15.15,18.16-15.15,18.16l-8.04-0.92c0.72-5.32,2.75-10.41,5.87-14.79v-0.24c-4.2,0.78-8.32,1.83-12.38,3.13
			l-2.61-7.63c10.95-3.48,22.34-5.42,33.84-5.79h0.32c-9.46-7.47-17.68-16.38-24.39-26.36l6.39-4.7c4.06,5.85,8.56,11.37,13.5,16.52
			c1.45-2.25,1.65-10.73,0.28-18.32l8.04-1.41c0.8,4.58,2.85,19.01-2.33,25.24c12.9,11.09,22.1,11.57,25.24,11.57h0.28
			c4.76-5.49,8.9-11.49,12.3-17.92v-0.76c-1.65-9.18-6.01-17.66-12.5-24.35c-10.33-9.76-28.13-5.95-28.13-5.95l-1.57-7.55
			c2.89-0.46,5.83-0.74,8.76-0.84c-7.84-3.72-16.11-6.41-24.63-8.04l1.25-8.04c6.53,1.23,12.92,3.05,19.13,5.47v-0.28
			c-2.97-5.67-5.4-11.55-7.31-17.64l7.68-2.29c1.73,5.75,7.72,21.54,15.11,27.53l1.33,0.8v-0.32c-0.66-6.75-2.09-13.4-4.26-19.81
			l7.59-2.57c0.52,1.93,5.79,17.56,4.54,27.81v0.36c2.87,2.23,5.57,4.68,8.04,7.35v-0.56c0.38-1.83,0.66-3.68,0.84-5.55l8.04,0.56
			c-0.32,3.74-1.06,7.43-2.21,11.01l-0.88,2.33c3.11,4.94,5.36,10.37,6.67,16.07v0.64l9.16,1c-0.66-8.04-0.58-16.09,0.24-24.11
			c0.92-9.26-5.16-17.78-14.23-19.89l1.61-8.04c6.57,1.51,12.34,5.51,16.07,11.13l0.32,0.44c2.05-6.87-5.59-18.28-8.56-21.86
			l6.19-5.3c4.42,5.47,7.74,11.77,9.76,18.52v0.24c6.09-6.37,10.41-14.21,12.54-22.74l8.04,1.53c-2.61,11.07-8.46,21.14-16.8,28.89
			c-9.36,8.48-7.72,33.31-7.15,41.35v1.04c4.16,1.37,8.48,2.19,12.86,2.45c5.02-3.54,36.17-25.92,29.13-59.79l8.04-1.65
			c1.21,5.77,1.51,11.69,0.88,17.56c3.78-6.21,6.49-13,8.04-20.09l8.04,1.65c-1.93,8.98-5.55,17.52-10.65,25.16
			c1.85-0.64,3.7-1.21,5.55-1.65c12.1-8,11.37-18.65,11.37-18.65l8.04-0.68c0.02,6.47-2.23,12.74-6.35,17.72
			c8.84-0.22,17.64,1.33,25.88,4.58l-3.21,7.35c-16.8-6.59-35.74-4.72-50.91,5.02c2.55-0.62,5.18-0.94,7.84-0.92
			c9.16,0.2,17.92,3.88,24.51,10.29l-5.79,5.55c-5.1-4.94-11.83-7.84-18.93-8.08c-8.78,0.5-17.02,4.4-22.95,10.89v0.24
			c-2.69,2.85-5.55,5.53-8.56,8.04l-0.24,0.2l-0.48,1.65c-0.72,2.53-2.05,9.8,0.64,13.82c0.62,0.88,1.51,1.59,2.53,2.01h0.2
			c3.94-1.37,13.94-4.74,24.59-7.43l0.2-0.28c2.33-4.32,3.15-9.3,2.37-14.14l8.04-1.21c0.56,4.42,0.32,8.92-0.72,13.26
			c6.13-1.49,12.48-1.89,18.77-1.17l-1.65,8.04c-4.74-1.17-13.74,0.56-23.07,2.85h0.28c5.81,1.27,11.29,3.76,16.07,7.31l-2.57,3.09
			l-2.57,3.09c-4.4-3.17-9.46-5.28-14.79-6.15v0.2c2.27,3.64,4.1,7.53,5.42,11.61l-7.63,2.41c-1.73-5.57-4.76-10.65-8.84-14.79
			c-2.79,0.16-5.57,0.56-8.28,1.17H280.97z"/>
		<path class="st2" d="M171.47,233.86c0.02,0.02,0.02,0.02,0.04,0.04l-3.38,2.17L171.47,233.86z"/>
	</g>
	<g>
	</g>
</g>
</svg>
