<?xml version="1.0" encoding="utf-8"?>
<!-- Generator: Adobe Illustrator 24.0.0, SVG Export Plug-In . SVG Version: 6.00 Build 0)  -->
<svg version="1.1" id="Layer_1" xmlns="http://www.w3.org/2000/svg" xmlns:xlink="http://www.w3.org/1999/xlink" x="0px" y="0px"
	 viewBox="0 0 566.93 566.93" style="enable-background:new 0 0 566.93 566.93;" xml:space="preserve">
<style type="text/css">
	.st0{fill:#E9EFF3;}
	.st1{fill:#9ACCEE;}
	.st2{fill:#405A9E;}
</style>
<path class="st0" d="M1.42,283.4c0,155.78,126.24,281.98,281.92,282.11S565.51,439.3,565.51,283.53v-0.13
	c0-155.78-126.24-281.98-282.05-281.98S1.42,127.62,1.42,283.4z"/>
<path class="st1" d="M463.1,212.83c-15.1-20.01-54.12-17.49-58.52-17.11l-0.63,0.13c-5.41,0.88-14.35-2.39-19.26-4.91
	c-11.96-9.56-23.66-8.05-28.82-5.54l-1.01,0.63c-1.76,1.26-8.05,0.5-12.33-1.01c-33.48-14.97-49.46-1.89-52.86,1.38
	c-8.31,6.42-20.26,2.39-22.15,1.76c-26.93-14.47-43.3-1.38-43.92-0.75l-0.63,0.5l-0.5,0.38c0,0-1.01,0.5-1.38,0.5
	c-1.26,0.13-2.89-0.13-4.15-0.38l-0.5-0.13c-10.57-1.38-21.9,5.03-30.96,12.21c6.42-12.33,14.22-25.17,23.66-38.5
	c0.5-0.88,5.54-8.68,3.4-16.74c-0.76-3.02-2.89-7.05-8.31-9.94c-2.39-1.64-15.1-9.31-28.19-9.31c-9.94,0-18.12,4.4-23.28,12.83
	c-6.42,6.79-58.78,65.05-55.88,143.82c0.13,1.13,8.31,111.61,101.94,111.61c16.86,0,35.37-3.65,55.5-10.82
	c-0.25,1.01-0.5,2.14-1.13,3.65l-14.1,32.09c-1.51,2.39-4.91,8.68-1.89,14.72c2.39,4.66,7.43,7.05,15.1,7.05
	c0.88,0,1.76,0,2.64-0.13c11.33-0.63,38.26-2.89,45.94-7.05c2.27-1.26,13.22-7.8,15.73-23.66c2.39-7.68,23.16-79.4-2.14-113.88
	c12.33-1.26,22.15-6.42,22.65-6.79l2.01-1.64c6.29-7.55,25.93-8.93,37.25-7.93c24.67,6.54,45.18-4.53,46.06-5.16l2.89-2.52
	l1.89-2.89c0.88-1.13,3.15-2.26,5.66-3.52c21.77-7.68,30.08-15.73,30.96-16.74l1.51-2.39C470.65,233.34,469.9,221.76,463.1,212.83
	L463.1,212.83z"/>
<path class="st2" d="M252.16,441.08c-7.68,0-12.71-2.39-15.1-7.05c-3.02-6.04,0.38-12.46,1.89-14.72l14.35-32.34
	c0.5-1.51,1.01-2.64,1.13-3.65c-20.01,7.17-38.76,10.82-55.5,10.82c-93.76,0-101.94-110.48-102.07-111.61
	c-2.89-78.77,49.46-136.9,55.88-143.82c5.29-8.3,13.34-12.83,23.28-12.83c13.09,0,25.67,7.8,28.19,9.31
	c5.41,2.89,7.43,6.92,8.31,9.94c2.14,8.05-2.89,15.85-3.4,16.74c-35.87,51.09-49.59,94.37-39.9,125.2
	c8.56,27.05,32.09,35.86,33.1,36.36l0.5,0.25c4.15,1.89,8.05,2.89,11.83,2.89c18.25,0,29.7-21.89,31.34-24.91
	c4.53-13.97,16.24-21.77,33.23-21.77c9.31,0,17.12,2.39,17.37,2.39l0.76,0.38c49.84,21.89,21.9,118.53,19.13,127.47
	c-2.52,15.85-13.47,22.52-15.73,23.66c-7.55,4.28-34.61,6.42-45.94,7.05C254.05,441.08,253.17,441.08,252.16,441.08 M250.28,427.24
	c0.88,0,2.27,0.13,3.78,0c16.49-1.01,36.37-3.4,39.9-5.41l0.63-0.38c0.13-0.13,7.05-3.77,8.43-13.84l0.25-1.13
	c8.05-25.8,21.77-96.13-11.08-111.11c-4.28-1.13-8.68-1.76-13.09-1.76c-16.49,0-19.26,9.44-20.14,12.46l-0.38,0.88
	c-0.63,1.38-15.61,33.22-43.92,33.22c-5.79,0-11.58-1.26-17.49-3.9c-3.52-1.26-30.84-12.58-41.16-44.67
	c-11.45-35.61,2.64-81.79,41.66-137.28c0.76-1.13,1.89-4.03,1.38-5.54c-0.13-0.13-0.13-0.75-1.51-1.38l-0.76-0.5
	c-0.13-0.13-10.82-7.3-20.77-7.3c-5.41,0-9.19,2.14-11.83,6.79l-0.38,0.75l-0.5,0.5c-0.5,0.5-55.25,58.26-52.61,134.13
	c0.25,3.77,7.43,98.52,88.23,98.52c16.49,0,34.99-3.9,55.25-11.7l1.01-0.38l1.64-0.13c3.9,0,7.43,1.89,9.57,5.03
	c3.02,4.4,2.89,10.7-0.38,19l-15.48,34.48C250.53,426.86,250.4,427.11,250.28,427.24"/>
<path class="st2" d="M308.8,296.75c-2.52,0-5.03-0.13-7.55-0.63l-2.89-12.83c10.82,1.89,27.94-3.65,31.46-5.28
	c13.84-14.34,45.06-11.83,48.58-11.45l1.26,0.25c14.73,4.15,28.32-0.38,34.23-2.77c0.38-0.13,1.38-1.13,1.76-1.38
	c3.27-4.53,9.31-7.68,12.33-8.93l0.5-0.13c13.59-4.78,21.02-9.56,24.04-11.83c0.5-0.5,0.88-1.13,1.13-1.76
	c2.52-8.05,2.01-14.09-1.38-18.62c-8.94-11.83-36.12-12.46-46.06-11.7c-11.96,1.76-26.68-5.91-28.32-6.79l-1.13-0.75
	c-7.17-6.04-12.71-4.78-14.35-4.28c-8.68,5.41-21.9,1.13-24.54,0.13l-0.5-0.13c-27.19-12.33-37.13-2.01-37.63-1.64l-0.76,0.75
	c-15.61,12.71-35.87,4.28-36.75,3.9l-0.63-0.38c-15.98-8.68-25.67-4.4-28.19-2.89c-5.16,6.79-15.86,5.16-18.75,4.53
	c-8.68-0.88-36.37,21.27-45.18,32.46l0.63-18.25c4.53-5.79,26.93-30.58,46.69-27.81l0.5,0.13c1.38,0.38,3.02,0.38,4.15,0.38
	c0.5,0,1.38-0.5,1.38-0.5l0.5-0.38l0.63-0.5c0.76-0.5,16.86-13.72,43.92,0.75c1.76,0.75,13.72,4.78,22.15-1.76
	c3.27-3.27,19.26-16.48,52.86-1.38c4.41,1.38,10.57,2.26,12.33,1.01l1.01-0.63c5.16-2.52,16.99-4.03,28.82,5.54
	c4.91,2.52,13.84,5.79,19.26,4.91l0.63-0.13c4.41-0.38,43.42-2.89,58.52,17.11c6.8,8.93,7.55,20.64,2.39,34.35l-1.51,2.39
	c-0.88,0.88-9.19,9.06-30.96,16.74c-2.52,1.13-4.78,2.39-5.66,3.52l-1.89,2.89l-2.89,2.52c-0.88,0.5-21.4,11.7-46.06,5.16
	c-11.33-1.01-30.84,0.38-37.25,7.93l-2.01,1.64C336.62,289.96,323.53,296.75,308.8,296.75"/>
<path class="st2" d="M170.99,314.5l0.13-0.76c0.13-0.63,0.5-1.89,0.76-3.4c0.76-2.89-0.38-2.39,1.64-6.42
	c0.88-2.14,2.14-4.28,3.52-6.42l2.14-3.52c0.76-1.13,1.76-2.26,2.64-3.4c3.4-4.91,7.93-9.19,12.84-13.84l8.05-6.42
	c1.38-1.13,2.89-2.01,4.41-3.02l4.53-2.77c6.17-4.15,13.09-6.67,20.01-9.94c3.52-1.64,7.3-2.52,10.82-3.77
	c3.65-1.13,7.43-2.64,11.2-3.52c7.68-1.64,15.23-3.65,23.16-4.91l23.16-3.02l22.53-1.26c7.3-0.63,14.35-0.13,21.02-0.13
	c6.67,0.13,12.96,0.13,18.88,0.25l38.76,2.89h-38.76l-18.75,1.13c-6.67,0.5-13.72,0.5-20.77,1.76l-22.15,2.89l-22.53,4.78
	c-7.43,1.76-14.85,4.28-22.15,6.42c-3.65,1.13-7.05,2.89-10.57,4.15c-3.52,1.51-6.92,2.64-10.19,4.4
	c-6.42,3.65-12.84,6.42-18.12,10.7l-4.15,2.89c-1.38,0.88-2.64,1.76-3.9,3.02c-2.39,2.14-4.66,4.15-6.8,6.04
	c-4.03,4.4-7.68,8.3-10.19,12.46c-0.76,1.01-1.38,1.89-2.01,2.89l-1.51,2.89c-1.01,1.89-1.89,3.52-2.39,5.03
	c-1.38,3.15-3.27,6.92-3.65,8.3l-0.38,1.38l-0.13,0.88L170.99,314.5L170.99,314.5z"/>
<path class="st2" d="M246.5,249.82c0,0,9.31-7.17,11.33-8.3c1.89-1.26,4.53-2.64,7.68-4.53c3.27-1.64,6.8-3.65,10.95-5.41l6.17-2.77
	l6.54-2.52c2.27-0.75,4.41-1.76,6.67-2.39l6.42-2.01l6.04-1.76c1.89-0.5,3.78-1.01,5.54-1.38l11.33-2.64l-10.82,4.28
	c-1.64,0.63-3.4,1.26-5.16,2.01l-5.66,2.64l-6.04,2.89c-2.01,1.01-4.03,2.14-6.04,3.27l-6.04,3.27l-5.54,3.52
	c-3.65,2.26-6.8,4.66-9.57,6.54c-2.64,2.01-4.91,3.77-6.29,5.03c-1.38,1.13-2.27,2.01-2.27,2.01L246.5,249.82L246.5,249.82z
	 M328.18,237.61c0,0,1.01,0.5,5.79,1.76c4.78,1.26,11.33,3.15,17.62,5.28c6.29,2.14,12.59,4.66,16.99,7.05
	c1.13,0.75,2.14,1.13,3.02,1.76c0.76,0.63,1.64,1.13,2.14,1.64l1.64,1.64l-1.89-1.26c-0.63-0.38-1.38-0.75-2.39-1.13
	c-0.88-0.5-2.01-0.75-3.15-1.13c-4.66-1.51-11.08-2.64-17.62-3.52c-6.42-0.75-12.71-2.39-17.62-2.64c-4.91-0.38-15.1-3.9-15.1-3.9
	L328.18,237.61z M225.99,268.95c-10.07-3.52-50.59-4.4-60.92-4.4v-10.57c0.5,0,50.59,0.13,64.31,4.91L225.99,268.95z"/>
</svg>
