<?xml version="1.0" encoding="utf-8"?>
<!-- Generator: Adobe Illustrator 24.0.0, SVG Export Plug-In . SVG Version: 6.00 Build 0)  -->
<svg version="1.1" id="Layer_1" xmlns="http://www.w3.org/2000/svg" xmlns:xlink="http://www.w3.org/1999/xlink" x="0px" y="0px"
	 viewBox="0 0 566.93 566.93" style="enable-background:new 0 0 566.93 566.93;" xml:space="preserve">
<style type="text/css">
	.st0{fill:#E9EFF3;}
	.st1{fill:#3C5A9B;}
	.st2{fill:#F16062;}
	.st3{fill:#9ACCEE;}
</style>
<path class="st0" d="M1.42,283.75c0,155.83,126.22,282.05,282.05,282.05s282.05-126.22,282.05-282.05S439.3,1.7,283.46,1.7
	S1.42,127.92,1.42,283.75z"/>
<path class="st1" d="M284.43,435.43c-29.29,0-50.92-21.4-54.75-54.75c-2.93-23.88,5.63-52.04,6.31-53.17l18.47,0.23
	c4.06,14.42,14.87,24.33,26.36,24.33h0.68c9.24-0.45,19.83-3.83,30.64-25.68l16.67-1.13c10.14,15.1,9.46,43.71,8.56,55.42
	C334.45,414.92,314.85,435.43,284.43,435.43L284.43,435.43z"/>
<path class="st1" d="M327.57,379.78c-2.7,30.64-19.6,45.96-43.48,45.96c-25.23,0-42.13-18.7-45.51-45.96
	c-2.7-22.08,5.63-49.34,5.63-49.34c5.63,20.28,21.4,31.77,36.95,31.09c14.87-0.68,27.94-8.56,38.98-31.09
	C326.89,340.35,328.92,360.18,327.57,379.78z M281.38,330.21c-7.21,0-17.8-2.48-27.71-13.97l-0.9-1.13
	c-12.84-14.42-23.66-27.26-31.77-46.86c-0.23-0.45-0.45-1.13-0.68-1.8l-7.89,4.96c1.13,1.35,3.15,2.25,4.06,2.25
	c-0.45,0-2.48,0.45-3.83,0.68c-4.28,0.9-11.04,2.25-20.28,2.25c-3.6,0-7.43-0.23-11.27-0.68c-4.51,2.48-9.91,3.6-15.1,4.51
	l-1.13,0.23c-0.9,0-2.25,0.23-3.38,0.23c-11.27,0-22.3-4.28-29.51-11.27c-4.06-4.06-6.98-8.79-8.56-14.19
	c-2.93-2.25-5.63-4.28-8.11-6.76c-0.68,0.23-1.8,0.23-2.7,0.23c-0.68,0-1.35,0-2.25-0.23l-7.43,3.6c-3.6,0-6.31-1.8-7.43-3.15
	c-13.97-9.91-26.81-30.19-24.33-52.27v-0.23c2.48-19.15,18.93-39.65,39.43-39.65c1.13,0,2.48,0,3.6,0.23
	c11.27,1.13,18.47,5.41,25.01,8.79c4.96,2.93,9.46,5.41,15.55,6.31c8.56,1.35,13.97,6.31,18.25,10.36
	c4.06,3.83,6.31,5.63,10.14,5.63c11.49,0,21.18-3.6,27.71-10.81l0.9-1.8c0.45-1.35,1.35-2.7,2.48-3.83c0.9-1.35,1.8-2.48,2.93-3.38
	l0.45-0.45c0.68-0.9,1.8-2.48,3.6-3.6c1.13-1.13,2.7-2.48,4.06-3.38c0.68-0.68,1.35-1.13,1.8-1.35c0.45-0.23,0.68-0.45,0.9-0.68
	l1.35-0.9c1.13-1.13,3.38-2.7,5.63-3.6c0.45-0.23,0.68-0.45,1.13-0.45h0.23l2.7-1.8l3.15-1.8c1.35-0.9,2.7-1.13,3.38-1.35
	c0,0-1.13,0.45-2.48,1.8l6.76-2.7c-1.8,0-3.15,0.45-3.38,0.68c0.45-0.23,1.35-0.68,2.93-1.13c0.68-0.23,1.8-0.68,2.93-0.68
	c0.45-0.23,1.35-0.45,2.48-0.68c10.14-2.7,20.28-4.06,29.06-4.06c10.14,0,20.95,1.35,31.09,4.06c0.9,0.23,1.8,0.45,2.48,0.68
	c1.8,0.23,2.93,0.9,3.83,1.8c16,6.08,27.94,16,34.47,28.39c6.53,6.98,16,10.81,27.71,10.81c3.15,0,4.96-1.35,9.46-5.63
	c4.51-4.06,10.14-9.46,18.93-10.59c6.31-0.9,10.59-3.38,15.55-6.31c6.31-3.6,13.52-7.66,25.01-8.79c1.13-0.23,2.48-0.23,3.6-0.23
	c20.5,0,36.95,20.5,39.43,39.43c3.83,24.11-10.14,44.38-23.21,54.3l-0.45,0.45c-1.8,0.9-3.83,2.48-6.76,2.48
	c-2.93,0-5.63-1.13-7.43-3.38c-0.68,0.23-1.35,0.23-2.25,0.23c-0.68,0-1.35,0-2.25-0.23c-3.15,2.93-6.31,5.63-9.46,7.89
	c-1.35,4.73-4.06,9.46-7.66,13.07c-7.21,7.21-18.02,11.27-29.51,11.27c-1.13,0-2.25,0-3.38-0.23h-0.45c-9.24-1.13-16-3.83-21.4-8.11
	h-2.7c-8.56,0-15.1-0.9-19.83-1.8c-2.48-0.23-4.51-0.68-5.63-0.68c0.23,0,1.8-0.45,3.38-2.25l-8.56-6.08
	c-10.81,23.66-21.85,37.63-37.4,53.85C301.21,325.48,291.3,330.21,281.38,330.21L281.38,330.21z M156.11,224.32
	c7.89,0.23,20.95,4.06,28.84,10.59c2.7,2.25,4.73,4.73,6.53,7.89c9.24-0.9,10.14-4.51,11.27-8.56l7.43,0.68v-0.45
	c0-0.45-0.23-1.13-0.23-1.35l-0.23-1.13l-0.45-0.68c-0.45-1.35-0.68-2.93-0.9-3.83c-0.23-0.68-0.23-0.9-0.23-1.35l-0.45-3.15
	c0,0.68,0.23,1.35,0.23,1.8c-0.23-0.9-0.68-2.48-0.9-4.28v-0.23c0-0.45-0.23-0.9-0.23-1.35c-2.25,0.68-4.28,1.8-6.76,3.15
	c-4.96,2.7-10.59,5.63-17.8,5.63c-12.84,0-19.83-6.53-25.46-11.72c-1.8-1.8-3.6-3.38-5.63-4.51c-0.68-0.23-1.35-0.45-2.7-0.68
	c-3.83-0.9-9.91-2.7-16-4.73l-0.45-0.68c-2.48-0.9-4.73-2.25-6.98-3.15c-4.28-1.8-9.46-4.51-12.17-4.51h-0.68
	c-2.93,0.23-2.93,1.13-3.15,2.93v0.9c1.13,1.35,5.63,4.73,6.98,6.08l0.23,0.23l0.23,0.23c0.68,0.45,1.8,1.13,2.7,2.25l0.23,0.23
	c1.35,0.9,2.7,1.8,3.83,2.7c1.13,0.68,2.7,1.8,3.83,2.7c1.8,1.35,3.83,2.48,4.96,2.93c3.15,1.35,5.41,4.28,5.63,7.66
	c4.06-1.35,8.79-2.48,13.97-2.48C153.86,224.32,154.99,224.32,156.11,224.32z M363.84,233.78c0.9,2.25,2.25,5.63,12.39,6.98
	c1.13-1.35,2.48-3.15,4.28-4.51c8.56-7.66,21.85-10.59,29.06-10.59c1.13,0,2.48-0.23,3.6-0.23c5.63,0,10.59,0.9,14.87,2.7
	c0.68-3.15,2.7-5.63,5.63-7.43c1.13-0.45,3.15-1.35,4.96-2.93l1.35-0.9c1.8-0.9,3.15-1.8,4.96-3.15l0.68-0.68l0.45,0.23
	c0.9-0.9,1.8-1.35,2.48-2.25c0.45-0.23,0.68-0.45,0.9-0.68l1.13-0.9c4.73-3.6,6.31-4.96,6.53-5.63v-1.13
	c-0.23-2.48-0.23-2.93-3.15-3.15h-1.13c-2.48,0-7.66,2.48-12.17,4.51c-2.25,0.9-4.51,2.25-6.98,3.15
	c-6.98,2.93-13.97,4.51-17.8,5.63c-0.45,0-0.68,0.23-1.13,0.23c-1.8,1.13-3.38,2.93-5.41,4.51c-5.63,5.41-12.84,11.72-25.46,11.72
	c-7.43,0-13.52-3.38-18.7-6.53c-1.35-0.68-2.93-1.8-4.28-2.48c-0.45-0.23-1.13-0.45-2.25-0.68c-0.68,4.73-1.8,9.91-3.15,14.87
	L363.84,233.78L363.84,233.78z"/>
<path class="st2" d="M464.95,241.61c-1.8,1.13-1.8,0.68-1.13-1.13c0.68-3.15,3.15-9.24,1.13-9.69c-1.13,0-8.56,8.56-11.04,8.56
	c-0.68,0-0.68,0-0.68-0.68s3.15-6.53,1.8-9.69h-0.68v3.15c-6.53,7.21-13.74,13.74-20.73,18.7c-0.68,4.51-3.15,9.24-5.63,11.72
	c-6.53,6.53-16.9,9.24-25.23,8.56c-10.36-1.13-15.55-4.51-18.7-8.56c-22.08,1.13-33.12-4.51-36.27-0.68
	c4.51-7.21,5.63-16,7.21-25.23c3.15,8.56,10.36,13.07,26.36,13.74c1.13-2.7,2.7-5.41,5.41-7.21c6.53-5.63,17.57-8.56,23.43-8.56
	c8.56-0.68,16,1.13,20.28,5.63c5.41-2.7,9.69-7.21,14.19-11.72c-1.8,0.68-3.83,1.13-5.41,1.8c-1.13,0.68-2.7-1.13-1.13-1.8
	c1.13-0.68,3.83-1.8,6.53-3.83c2.7-1.13,4.51-2.7,7.21-4.51l1.13-1.13v0.68c1.13-1.13,2.7-1.8,3.83-3.15
	c9.69-7.21,11.04-9.69,10.36-15.55c-0.68-7.21-4.51-11.04-12.39-11.72h-1.35c-6.53,0-14.87,5.41-22.76,8.56
	c-9.24,3.83-18.02,5.41-19.6,5.63c-9.24,5.63-13.74,15.55-26.36,15.55c-6.53,0-12.39-4.51-18.7-7.66c-1.13-0.68-3.15-1.13-5.41-1.8
	c-0.68,0-1.13-0.68-2.7-0.68h-3.15c-1.13,0-2.7,0-3.83,0.68c-1.13,14.19-7.21,35.6-13.07,48.67c-10.36,22.76-20.73,35.6-35.6,51.14
	c-12.39,13.74-28.61,14.87-41.46,0c-12.84-14.87-23.43-26.36-31.09-45.51c-1.8-4.51-3.15-9.24-5.41-13.74
	c-0.68-1.8-1.13-4.51-1.8-6.53v-0.9c-0.68-1.8-1.13-4.51-1.8-6.53v-1.13c-0.68-1.8-0.68-3.83-1.13-5.63c0-0.68,0-1.13-0.68-1.8
	c-0.68-1.8-0.68-3.15-1.13-5.41c0-1.13-0.68-1.8-0.68-3.15s-0.68-2.7-0.68-3.83c0-2.7-0.68-4.51-0.68-7.21
	c-1.13,0-2.7-0.68-3.83-0.68c-11.72,0-19.6,9.69-29.06,9.69c-13.07,0-17.57-9.69-26.36-15.55c-1.13-0.68-10.36-2.7-19.6-5.63
	c-7.66-3.15-16-8.56-22.76-8.56h-1.13c-7.66,0.68-11.72,5.41-12.39,11.72c-0.68,5.63,0.68,7.66,10.36,15.55
	c0.68,0.68,1.8,1.13,2.7,1.8l0.68,0.68c3.15,2.7,5.63,3.83,8.56,5.63c2.7,1.8,5.41,3.15,6.53,3.83c1.13,0.68,0.68,2.7-1.13,1.8
	l-5.63-1.8c4.51,4.51,9.69,9.24,14.19,11.72c4.51-3.83,11.72-5.63,20.28-5.41c5.63,0,16.9,3.15,23.43,8.56
	c3.15,2.7,5.41,6.53,5.63,10.36c17.57,0,24.11-5.41,27.26-15.55c1.13,9.69,3.15,18.7,7.21,27.94c-3.83-4.51-13.74,4.51-40.78,0.68
	c-3.15,2.7-8.56,3.83-14.87,5.41c-8.56,0.68-18.7-1.8-25.23-8.56c-3.15-3.15-5.63-7.66-6.53-13.07
	c-7.21-5.41-14.19-11.04-20.73-18.02c0.68,3.15,2.7,6.53,1.8,7.21c0,0.68-0.68,0.68-0.68,0.68c-2.7,0-9.69-8.56-11.04-8.56
	c-1.8,0.68,0.68,6.53,1.13,9.69c0.68,2.7,0,2.7-1.13,1.13c-11.72-8.56-22.76-25.23-20.73-43.93c1.8-14.87,15.55-33.12,32.44-31.09
	c18.02,1.8,23.43,12.39,40.1,14.87c12.39,1.8,15.55,16,29.74,16c14.87,0,27.26-5.41,35.6-14.87l1.8-3.83c0,0,0-0.68,0.68-0.68
	c0.68-1.13,1.13-1.8,2.7-3.15l0.68-0.68c0.68-0.68,1.13-1.8,2.7-2.7l0.68-0.68c0.68-0.68,1.8-1.8,3.15-2.7
	c1.13-1.13,2.7-1.8,3.83-3.15l0.68-0.68c0.68-0.68,1.8-1.13,2.7-1.13s0.68-0.68,1.13-0.68c1.13-0.68,1.8-1.13,3.15-1.8l3.83-1.8
	c0.68-0.68,1.8-0.68,2.7-1.13c0.68,0,1.13-0.68,1.8-0.68s1.13-0.68,1.8-0.68s1.8-0.68,2.7-0.68c9.69-2.7,19.6-3.83,27.26-3.83
	c9.24,0,19.6,1.13,29.06,3.83c0.68,0,1.13,0.68,1.8,0.68c0.68,0,0.68,0,1.13,0.68c13.07,4.51,25.23,13.07,31.09,25.23
	c8.56,9.69,20.73,14.87,35.6,14.87c13.74,0,16.9-14.19,29.74-16c16.9-2.7,22.08-13.07,40.1-14.87c16.9-1.8,30.64,16,32.44,31.09
	C487.71,216.38,475.99,233.05,464.95,241.61L464.95,241.61z"/>
<path class="st3" d="M327.52,378.82c-2.7,30.64-19.6,45.96-43.48,45.96c-25.23,0-42.13-18.7-45.51-45.96
	c-2.7-22.08,5.63-49.34,5.63-49.34c5.63,20.28,21.4,31.77,36.95,31.09c14.87-0.68,27.94-8.56,38.98-31.09
	C326.84,339.39,328.87,359.22,327.52,378.82z M464.95,241.61c-1.8,1.13-1.8,0.68-1.13-1.13c0.68-3.15,3.15-9.24,1.13-9.69
	c-1.13,0-8.56,8.56-11.04,8.56c-0.68,0-0.68,0-0.68-0.68s3.15-6.53,1.8-9.69h-0.68v3.15c-6.53,7.21-13.74,13.74-20.73,18.7
	c-0.68,4.51-3.15,9.24-5.63,11.72c-6.53,6.53-16.9,9.24-25.23,8.56c-10.36-1.13-15.55-4.51-18.7-8.56
	c-22.08,1.13-33.12-4.51-36.27-0.68c4.51-7.21,5.63-16,7.21-25.23c3.15,8.56,10.36,13.07,26.36,13.74c1.13-2.7,2.7-5.41,5.41-7.21
	c6.53-5.63,17.57-8.56,23.43-8.56c8.56-0.68,16,1.13,20.28,5.63c5.41-2.7,9.69-7.21,14.19-11.72c-1.8,0.68-3.83,1.13-5.41,1.8
	c-1.13,0.68-2.7-1.13-1.13-1.8c1.13-0.68,3.83-1.8,6.53-3.83c2.7-1.13,4.51-2.7,7.21-4.51l1.13-1.13v0.68
	c1.13-1.13,2.7-1.8,3.83-3.15c9.69-7.21,11.04-9.69,10.36-15.55c-0.68-7.21-4.51-11.04-12.39-11.72h-1.35
	c-6.53,0-14.87,5.41-22.76,8.56c-9.24,3.83-18.02,5.41-19.6,5.63c-9.24,5.63-13.74,15.55-26.36,15.55c-6.53,0-12.39-4.51-18.7-7.66
	c-1.13-0.68-3.15-1.13-5.41-1.8c-0.68,0-1.13-0.68-2.7-0.68h-3.15c-1.13,0-2.7,0-3.83,0.68c-1.13,14.19-7.21,35.6-13.07,48.67
	c-10.36,22.76-20.73,35.6-35.6,51.14c-12.39,13.74-28.61,14.87-41.46,0c-12.84-14.87-23.43-26.36-31.09-45.51
	c-1.8-4.51-3.15-9.24-5.41-13.74c-0.68-1.8-1.13-4.51-1.8-6.53v-0.9c-0.68-1.8-1.13-4.51-1.8-6.53v-1.13
	c-0.68-1.8-0.68-3.83-1.13-5.63c0-0.68,0-1.13-0.68-1.8c-0.68-1.8-0.68-3.15-1.13-5.41c0-1.13-0.68-1.8-0.68-3.15
	s-0.68-2.7-0.68-3.83c0-2.7-0.68-4.51-0.68-7.21c-1.13,0-2.7-0.68-3.83-0.68c-11.72,0-19.6,9.69-29.06,9.69
	c-13.07,0-17.57-9.69-26.36-15.55c-1.13-0.68-10.36-2.7-19.6-5.63c-7.66-3.15-16-8.56-22.76-8.56h-1.13
	c-7.66,0.68-11.72,5.41-12.39,11.72c-0.68,5.63,0.68,7.66,10.36,15.55c0.68,0.68,1.8,1.13,2.7,1.8l0.68,0.68
	c3.15,2.7,5.63,3.83,8.56,5.63c2.7,1.8,5.41,3.15,6.53,3.83c1.13,0.68,0.68,2.7-1.13,1.8l-5.63-1.8c4.51,4.51,9.69,9.24,14.19,11.72
	c4.51-3.83,11.72-5.63,20.28-5.41c5.63,0,16.9,3.15,23.43,8.56c3.15,2.7,5.41,6.53,5.63,10.36c17.57,0,24.11-5.41,27.26-15.55
	c1.13,9.69,3.15,18.7,7.21,27.94c-3.83-4.51-13.74,4.51-40.78,0.68c-3.15,2.7-8.56,3.83-14.87,5.41c-8.56,0.68-18.7-1.8-25.23-8.56
	c-3.15-3.15-5.63-7.66-6.53-13.07c-7.21-5.41-14.19-11.04-20.73-18.02c0.68,3.15,2.7,6.53,1.8,7.21c0,0.68-0.68,0.68-0.68,0.68
	c-2.7,0-9.69-8.56-11.04-8.56c-1.8,0.68,0.68,6.53,1.13,9.69c0.68,2.7,0,2.7-1.13,1.13c-11.72-8.56-22.76-25.23-20.73-43.93
	c1.8-14.87,15.55-33.12,32.44-31.09c18.02,1.8,23.43,12.39,40.1,14.87c12.39,1.8,15.55,16,29.74,16c14.87,0,27.26-5.41,35.6-14.87
	l1.8-3.83c0,0,0-0.68,0.68-0.68c0.68-1.13,1.13-1.8,2.7-3.15l0.68-0.68c0.68-0.68,1.13-1.8,2.7-2.7l0.68-0.68
	c0.68-0.68,1.8-1.8,3.15-2.7c1.13-1.13,2.7-1.8,3.83-3.15l0.68-0.68c0.68-0.68,1.8-1.13,2.7-1.13s0.68-0.68,1.13-0.68
	c1.13-0.68,1.8-1.13,3.15-1.8l3.83-1.8c0.68-0.68,1.8-0.68,2.7-1.13c0.68,0,1.13-0.68,1.8-0.68s1.13-0.68,1.8-0.68
	s1.8-0.68,2.7-0.68c9.69-2.7,19.6-3.83,27.26-3.83c9.24,0,19.6,1.13,29.06,3.83c0.68,0,1.13,0.68,1.8,0.68c0.68,0,0.68,0,1.13,0.68
	c13.07,4.51,25.23,13.07,31.09,25.23c8.56,9.69,20.73,14.87,35.6,14.87c13.74,0,16.9-14.19,29.74-16
	c16.9-2.7,22.08-13.07,40.1-14.87c16.9-1.8,30.64,16,32.44,31.09C487.71,216.38,475.99,233.05,464.95,241.61L464.95,241.61z"/>
<path class="st1" d="M128.24,236.09c-7.21,4.73-6.08,13.52-5.41,16.67c1.8,8.56,26.59,39.2,63.54,18.02
	c6.98-5.41,6.76-13.74,6.31-18.47C191.32,239.25,158.2,216.26,128.24,236.09z M438.48,235.64c7.43,4.73,6.31,13.74,5.63,16.9
	c-1.8,8.79-27.26,39.88-64.66,18.25c-7.21-5.63-6.98-13.97-6.31-18.7C374.49,239.25,408.06,215.81,438.48,235.64z"/>
</svg>
