<?xml version="1.0" encoding="utf-8"?>
<!-- Generator: Adobe Illustrator 24.0.0, SVG Export Plug-In . SVG Version: 6.00 Build 0)  -->
<svg version="1.1" id="Layer_1" xmlns="http://www.w3.org/2000/svg" xmlns:xlink="http://www.w3.org/1999/xlink" x="0px" y="0px"
	 viewBox="0 0 566.93 566.93" style="enable-background:new 0 0 566.93 566.93;" xml:space="preserve">
<style type="text/css">
	.st0{fill:#E9EFF3;}
	.st1{fill:#3C5A9C;}
	.st2{fill:#9ACCEE;stroke:#3C5A9D;stroke-width:8;stroke-miterlimit:10;}
	.st3{fill:#3C5A9B;}
	.st4{fill:#9ACCEE;}
</style>
<circle class="st0" cx="283.46" cy="283.46" r="282.05"/>
<path class="st1" d="M223.53,127.45c2.82-2.12,4.94-1.41,7.76,2.12c13.4,16.22,25.38,33.14,35.96,52.18
	c20.45,35.96,36.67,78.27,46.54,118.46c3.53,13.4,6.35,26.79,7.05,40.19c0.71,9.87-0.71,19.04-4.94,27.5
	c-8.46,14.81-28.91,18.33-40.9,7.76c-7.05-5.64-8.46-13.4-9.17-22.56v-5.64c-0.71-10.58,3.53-20.45,6.35-30.32
	c2.82-9.87,3.53-23.97,3.53-33.85c0.71-9.87-1.41-19.74-3.53-29.61c-7.05-32.44-20.45-62.76-35.26-93.08
	c-4.23-9.17-9.17-17.63-14.1-25.38C220,132.39,221.41,129.57,223.53,127.45L223.53,127.45z"/>
<path class="st2" d="M361.13,295.37c3.53,2.82,7.05,5.64,10.58,7.76c2.12,1.41,4.23,1.41,6.35,0c3.53-2.12,7.76-4.23,10.58-7.05
	c10.58-8.46,21.86-9.17,33.14-3.53c4.23,2.12,7.76,3.53,12.69,4.23c4.23,0.71,7.76,0.71,11.28-2.82c2.12-2.12,7.76-2.82,9.87,2.82
	v112.82c0,3.53-1.41,7.76-4.23,9.87c-2.82,2.82-6.35,4.23-9.87,4.23H143.96c-3.53,0-7.76-1.41-9.87-4.23
	c-2.82-2.82-4.23-6.35-4.23-9.87c0-31.73,0.71-105.77,0.71-105.77c5.64-6.35,19.04-11.28,28.91-11.99
	c7.05-0.71,12.69,2.12,17.63,5.64c2.82,2.12,4.94,3.53,8.46,5.64c1.41,0.71,2.82,1.41,4.23,1.41l4.23-1.41l10.58-6.35
	c4.94-4.23,9.87-6.35,15.51-6.35h7.76c2.82,0.71,5.64,1.41,8.46,2.82c3.53,2.12,9.87,3.53,14.81,4.23l0.71-9.17
	c0-4.23,0.71-8.46-0.71-11.28c-1.41-4.23-4.23-6.35-9.17-6.35H135.49c-4.94,0-9.87-0.71-9.87-7.05c0-4.23,3.53-4.94,8.46-4.94h39.49
	l2.12-6.35c1.41-4.94,2.82-9.87,2.82-14.81c0-4.94-0.71-9.87-2.12-14.81c-3.53-16.22-9.87-31.73-17.63-46.54
	c-2.12-4.23-4.23-8.46-7.05-12.69c0-3.53,0-4.94,1.41-5.64c1.41-0.71,2.82-0.71,3.53,1.41c7.05,8.46,12.69,16.92,17.63,26.09
	c9.87,18.33,18.33,37.37,22.56,57.11c1.41,4.23,2.12,10.58,2.82,15.51h39.49c11.28,0,21.15,6.35,25.38,16.92
	c1.41,4.23,2.12,9.17,2.12,12.69c0.71,11.99-2.12,21.86-2.12,22.56c-2.12,7.76-4.94,13.4-8.46,19.04l-1.41,2.12
	c-4.94,9.17-7.05,19.04-5.64,30.32c2.12,16.92,13.4,29.61,30.32,33.14c1.41,0.71,3.53,0.71,4.94,0.71
	c2.12,0.71,16.22,0.71,16.22,0.71c10.58-0.71,19.04-4.23,25.38-9.87c12.69-11.28,16.22-34.55,8.46-51.47
	c-1.41-2.12-2.12-4.23-3.53-6.35c-2.12-3.53-3.53-6.35-4.94-10.58c0-0.71-5.64-15.51-4.94-30.32v-7.05
	c3.53-15.51,12.69-22.56,28.91-23.27h23.97l0.71-2.12c1.41-4.94,2.82-9.87,2.82-14.81s-0.71-9.87-2.12-14.81
	c-3.53-16.22-9.87-31.73-17.63-46.54c-2.12-4.23-4.23-8.46-7.05-12.69c-0.71-2.12-0.71-3.53,0.71-4.23
	c1.41-0.71,2.82-0.71,3.53,1.41c7.05,8.46,12.69,16.92,17.63,26.09c9.87,18.33,18.33,37.37,22.56,57.11c0,1.41,0.71,2.82,0.71,4.23
	l0.71,2.82c0,1.41,0.71,2.82,0.71,4.23h50.77c4.23,0,7.76,0.71,8.46,4.94c0.71,7.05-4.94,7.05-9.17,7.05h-98.01
	c-8.46,0-9.87,6.35-11.99,14.1v7.76C344.91,289.02,355.49,291.13,361.13,295.37L361.13,295.37z"/>
<path class="st3" d="M196.98,335.93c0,7.79,6.31,14.11,14.09,14.11c7.79,0,14.11-6.31,14.11-14.09c0-0.01,0-0.01,0-0.02
	c0-7.79-6.31-14.11-14.09-14.11c-7.79,0-14.11,6.31-14.11,14.09C196.98,335.92,196.98,335.92,196.98,335.93z"/>
<path class="st3" d="M148.32,347.92c0,5.45,4.42,9.87,9.87,9.87c5.45,0,9.87-4.42,9.87-9.87c0-5.45-4.42-9.87-9.87-9.87
	C152.74,338.04,148.32,342.46,148.32,347.92z"/>
<path class="st3" d="M184.28,376.83c0,5.45,4.42,9.87,9.87,9.87c5.45,0,9.87-4.42,9.87-9.87s-4.42-9.87-9.87-9.87
	C188.7,366.95,184.28,371.37,184.28,376.83L184.28,376.83z"/>
<path class="st3" d="M414.86,366.25c0,3.12,2.84,5.64,6.34,5.65c3.5,0,6.35-2.52,6.35-5.64c0,0,0-0.01,0-0.01
	c0-3.12-2.84-5.64-6.34-5.65C417.7,360.6,414.86,363.12,414.86,366.25C414.86,366.24,414.86,366.25,414.86,366.25z"/>
<path class="st3" d="M378.9,344.39c0,7.4,6,13.4,13.4,13.4s13.4-6,13.4-13.4c0-7.4-6-13.4-13.4-13.4
	C384.89,330.99,378.9,336.99,378.9,344.39L378.9,344.39z"/>
<path class="st3" d="M357.04,376.83c-0.01,5.45,4.41,9.88,9.86,9.88c5.45,0.01,9.88-4.41,9.88-9.86c0-0.01,0-0.02,0-0.02
	c0.01-5.45-4.41-9.88-9.86-9.88c-5.45-0.01-9.88,4.41-9.88,9.86C357.04,376.81,357.04,376.82,357.04,376.83z"/>
<path class="st4" d="M249.89,168.55c-0.74,0.42,7.6,13.45,17.55,39.48c3.47,9.07,7.22,19.02,10.53,32.46
	c2.8,11.4,6.02,24.54,6.14,41.23c0.12,16.31,0.26,36.81-7.02,57.02c-1.09,3.03-3.7,9.79-1.75,17.55
	c0.39,1.57,3.07,12.24,12.28,14.91c6.59,1.92,13.56-1.13,17.55-5.26c3.59-3.73,5.67-9.29,4.39-28.95
	c-1.17-17.89-4.09-31.53-5.26-36.85c-2.16-9.82-5.03-21.71-10.53-40.35c-2.19-7.44-4.73-16.05-7.02-22.81
	C273.74,198.61,251.05,167.89,249.89,168.55z"/>
</svg>
