<?xml version="1.0" encoding="utf-8"?>
<!-- Generator: Adobe Illustrator 24.0.0, SVG Export Plug-In . SVG Version: 6.00 Build 0)  -->
<svg version="1.1" id="Layer_1" xmlns="http://www.w3.org/2000/svg" xmlns:xlink="http://www.w3.org/1999/xlink" x="0px" y="0px"
	 viewBox="0 0 566.93 566.93" style="enable-background:new 0 0 566.93 566.93;" xml:space="preserve">
<style type="text/css">
	.st0{fill:#E9EFF2;}
	.st1{fill:#3F5A9E;}
	.st2{fill:#9ACCEE;}
	.st3{fill:#405A9E;}
</style>
<path class="st0" d="M1.42,283.46c0,155.77,126.28,282.05,282.05,282.05s282.05-126.28,282.05-282.05S439.23,1.42,283.46,1.42
	S1.42,127.69,1.42,283.46z"/>
<path class="st1" d="M464.97,276.88H299.24c12.63-25.07,15.2-55.25-0.63-80.89c-4.4-7.06-34.18-37.86-58.18-62.94l33.55-34.02
	l25.95,26.33c13.26,13.48,32.29,20.54,51.27,19.28c16.46-0.63,36.06,3.21,58.8,15.43C451.03,183.14,467.49,228.69,464.97,276.88
	L464.97,276.88z M287.35,454.48h-12.03c-14.62,0-60.92-5.8-105.9-66.78c-4.41-6.43-14.62-5.8-17.77,1.26
	c-4.41,9.64-8.25,23.12-1.26,37.86c1.89,3.84,2.52,7.69,1.89,11.53H108.5c-10.14-28.92-19.66-77.68,17.14-113.65
	c0,0,29.17-37.23,80.58,0c29.17,21.17,73.58-7.69,93.24-48.19h165.56C459.91,362.69,392.06,458.38,287.35,454.48z"/>
<path class="st2" d="M312.18,437.72h-9.13c-7.31,0-28.54,7.24-72.13-16.63c-13.42-7.37-26.9-22.93-42.97-37.74
	c-7.69-7.06-18.84-11.34-28.73-19.47c-3.15-4.6-16.19,0.69-18.4,5.8c-2.27,5.04-7.37,33.14-6.3,43.85c0.44,3.97-1.32-10.39,0-7.5
	c1.32,2.77,0.44,12.28,0,15.06h-14.87c-1.13-8.19-3.91-21.36-3.34-33.64c0.82-17.83,6.74-31.81,18.21-47.5
	c3.21,0,12.73-29.92,53.42-6.61c59.03,33.77,104.01-6.8,128.52-46.93c27.22-6.05,46.56-9.07,57.96-9.07
	c15.62,0,36.92,9.51,63.82,28.48c-3.59,61.93-63.82,120.2-118.5,129.59L312.18,437.72L312.18,437.72z"/>
<path class="st2" d="M445.99,290.05c-33.14,8.63-56.38,11.91-69.61,9.89c-12.47-1.89-30.81-10.46-55.06-25.64
	c6.61-20.66,11.02-40.7,0-75.03c-1.83-5.61-34.71-50.15-56.07-64.39l10.58-10.33l30.11,26.46c9.45,9.7,43.85,12.54,57.39,11.65
	c11.72-0.44,33.52,10.9,50.78,21.17C455.88,222.39,448.76,255.97,445.99,290.05L445.99,290.05z"/>
<path class="st3" d="M317.28,316.07l1.01-0.19c0,0,0.63,0.44,0.69,1.01l8.19,7.94l3.91-4.54l-8.19-7.94
	c-0.69-1.01-1.89-1.89-3.53-2.14c-1.13-0.38-2.65-0.06-3.65,0.06c-2.02,0.38-3.46,1.13-5.48,1.51l2.08,5.67
	C314.26,316.57,315.77,316.32,317.28,316.07L317.28,316.07z M296.49,352.73c0.25,1.57,1.57,3.02,2.71,3.4
	c4.03,2.02,8.88,2.83,13.23,3.72l1.01-6.24c-4.35-0.88-15.56-4.98-15.56-4.98C297.12,350.4,296.3,351.66,296.49,352.73
	L296.49,352.73z M327.23,426l5.35,3.46c1.57-3.02,0.5-6.11,0.13-8.25c-0.19-1.07-0.82-1.51-0.44-2.65
	c-0.25-1.57,0.57-2.83,1.95-3.65c1.45-0.82,2.96-1.07,4.66-0.25l1.57-5.8c-3.34-1.07-6.87-0.44-9.76,1.2
	c-3.28,2.2-5.23,5.86-4.6,9.64c0.25,1.57,0.44,2.65,1.2,3.65C327.49,424.36,327.67,425.37,327.23,426L327.23,426z M250.75,390.53
	l-6.17,0.57c-0.06,2.77,0.63,6.49,2.2,9.51c0.88,2.02,2.77,3.91,5.1,5.17l2.71-5.42c-1.2-0.88-1.89-1.89-2.58-2.83
	C251.19,395.95,251.19,393.18,250.75,390.53L250.75,390.53z M406.42,304.16c1.51-0.25,3.21,0.5,3.91,1.51l4.54-4.09
	c-2.08-2.96-6.05-4.41-9.58-3.84c-3.53,0.63-6.74,3.4-7.69,6.87l5.67,2.33C403.52,305.8,404.91,304.48,406.42,304.16L406.42,304.16z
	 M178.11,376.92l5.23,2.96c1.89-4.16,6.3-6.05,10.71-4.66l1.57-5.8C188.89,366.78,181.14,370.31,178.11,376.92z M223.1,373.4
	l-6.17,0.57c-0.06,2.77,0.63,6.49,2.2,9.51c0.88,2.02,2.77,3.91,5.1,5.17l2.71-5.42c-1.2-0.88-1.89-1.89-2.58-2.83
	C223.54,378.81,223.03,376.17,223.1,373.4L223.1,373.4z M380.03,365.52c0.95-0.69,2.33-1.51,3.4-1.7c1.01-0.19,2.2,0.69,3.4,1.57
	c1.32,1.45,2.2,3.46,2.96,4.98l5.29-2.58c-0.88-2.02-1.89-4.6-3.84-7.06c-2.02-2.39-5.42-3.97-8.06-4.09
	c-2.65-0.06-4.47,1.32-6.3,2.77L380.03,365.52L380.03,365.52z M285.97,417.87l-1.13-0.38c-6.49-1.07-9.76,1.2-11.02,3.02l4.91,4.09
	c0.82-1.26,2.96-1.07,5.61-1.01l1.13,0.38c2.2,0.69,4.85,0.82,6.87,0.44c0.5-0.06,1.51-0.25,2.46-1.01l-2.58-5.61
	C290.38,419.32,288.68,418.5,285.97,417.87L285.97,417.87z M289.69,382.53c-4.91,1.95-8.82,6.49-9.89,12.22l5.98,1.13
	c0.44-3.4,2.65-5.98,5.54-7.06l1.95,11.21l6.11-1.07l-1.95-11.21c-0.19-1.07-0.44-2.65-1.76-4.09
	C294.85,382.22,293.15,381.4,289.69,382.53z M269.34,371.25c-1.2-0.88-1.89-1.89-2.58-2.83c-0.88-2.02-1.39-4.72-1.2-6.93
	l-6.17,0.57c-0.06,2.77,0.63,6.49,2.2,9.51c0.88,2.02,2.77,3.91,5.1,5.17L269.34,371.25z M357.98,340.45c0,0,0.57-0.13,1.2,0.32
	c0.63,0.38,1.32,0.82,1.45,1.83c0.76,0.95,1.45,1.83,2.77,2.65l4.28-4.98c-0.63-0.38-1.39-1.32-2.02-1.76
	c-0.76-0.94-1.45-1.83-2.77-2.65c-1.95-1.2-4.35-1.83-6.61-1.45c-1.7,0.32-3.28,1.07-4.22,2.33L357.98,340.45L357.98,340.45z
	 M361.69,384.3c0.44,2.52-0.13,5.8-0.82,8.5l6.05,1.57c1.13-3.34,2.2-7.18,0.88-11.15c-0.88-5.1-4.98-8.57-9.58-8.76
	c-1.76-0.19-3.91,0.69-4.72,2.39c-0.94,1.2-0.69,2.71,0.06,3.65C353.44,379.95,361.32,382.22,361.69,384.3L361.69,384.3z
	 M370.26,312.1c-1.57-2.33-1.64-5.98-0.38-8.82c0.44-0.63,0.38-1.13,0.82-1.7c1.39-1.83,2.71-4.16,2.27-6.68l-6.8,0.69
	c0.19,1.01-0.76,2.2-1.7,3.46l-1.39,1.83c-2.65,4.66-2.2,10.33,0.25,14.62L370.26,312.1z"/>
</svg>
