<?xml version="1.0" encoding="utf-8"?>
<!-- Generator: Adobe Illustrator 24.0.0, SVG Export Plug-In . SVG Version: 6.00 Build 0)  -->
<svg version="1.1" id="Layer_1" xmlns="http://www.w3.org/2000/svg" xmlns:xlink="http://www.w3.org/1999/xlink" x="0px" y="0px"
	 viewBox="0 0 2560 784" style="enable-background:new 0 0 2560 784;" xml:space="preserve">
<style type="text/css">
	.st0{fill:#252752;}
	.st1{fill:#252746;}
	.st2{opacity:0.2;fill:none;stroke:#ECE9EF;stroke-width:2;stroke-miterlimit:10;}
	.st3{opacity:0.2;fill:#ECE9EF;stroke:#4472C4;stroke-miterlimit:8;}
	.st4{opacity:0.2;}
	.st5{fill:none;stroke:#ECE9EF;stroke-miterlimit:10;}
	.st6{fill-rule:evenodd;clip-rule:evenodd;fill:#ECE9EF;}
	.st7{opacity:0.2;fill:#ECE9EF;stroke:#ECE9EF;stroke-miterlimit:10;}
</style>
<g>
	<rect x="0.5" y="0.5" class="st0" width="2559" height="783"/>
	<path class="st1" d="M2559,1v782H1V1H2559 M2560,0H0v784h2560V0L2560,0z"/>
</g>
<line class="st2" x1="2648" y1="536" x2="2648.5" y2="536.5"/>
<g>
	<path class="st3" d="M2385.53,42.97c-2.74-18.52,16.58-30.65,30.97-30.97c20.3,1.31,30.82,16.03,30.97,30.97
		c1.56,16.78-14.66,33.05-30.97,30.97C2398.93,74.13,2388.08,57.69,2385.53,42.97z"/>
	<path class="st3" d="M2039.18,253.58c-1.91-12.92,11.56-21.38,21.6-21.6c14.16,0.91,21.49,11.18,21.6,21.6
		c1.09,11.7-10.23,23.06-21.6,21.6C2048.53,275.32,2040.96,263.85,2039.18,253.58z"/>
	<path class="st3" d="M2201.47,203.11c-5.95-40.19,35.97-66.51,67.2-67.2c44.05,2.85,66.88,34.78,67.2,67.2
		c3.39,36.41-31.82,71.73-67.2,67.2C2230.55,270.75,2207,235.07,2201.47,203.11z"/>
	<path class="st3" d="M2412.87,402.52c-3.1-20.94,18.75-34.66,35.02-35.02c22.95,1.48,34.85,18.13,35.02,35.02
		c1.77,18.97-16.59,37.38-35.02,35.02C2428.03,437.77,2415.75,419.18,2412.87,402.52z"/>
	<path class="st3" d="M2143.2,73.77c-1.91-12.92,11.56-21.38,21.6-21.6c14.16,0.91,21.49,11.18,21.6,21.6
		c1.09,11.7-10.23,23.06-21.6,21.6C2152.54,95.51,2144.97,84.05,2143.2,73.77z"/>
	<g class="st4">
		<line class="st5" x1="2315.41" y1="253.36" x2="2425.15" y2="375.68"/>
		<line class="st6" x1="2315.41" y1="253.36" x2="2425.15" y2="375.68"/>
	</g>
	<line class="st7" x1="2322.01" y1="162.21" x2="2396.37" y2="65.07"/>
	<line class="st7" x1="2207.18" y1="221.88" x2="2081.25" y2="249.46"/>
	<line class="st7" x1="2226.07" y1="150.82" x2="2179.3" y2="90.25"/>
</g>
<path class="st3" d="M208.54,274.84c-2.45-16.55,14.82-27.4,27.68-27.68c18.14,1.17,27.55,14.33,27.68,27.68
	c1.4,15-13.11,29.55-27.68,27.68C220.52,302.7,210.82,288.01,208.54,274.84z"/>
<g>
	<path class="st3" d="M175.67,502.92c-8.42-16.72,6.1-34.3,19.67-39.13c19.68-5.13,34.29,5.53,39.13,19.67
		c6.76,15.44-3.53,35.99-19.67,39.13C198.18,528.3,182.71,516.11,175.67,502.92z"/>
	<path class="st3" d="M-86.95,811.71c-5.87-11.66,4.26-23.93,13.72-27.29c13.73-3.58,23.92,3.86,27.29,13.72
		c4.71,10.77-2.46,25.1-13.72,27.29C-71.25,829.41-82.03,820.91-86.95,811.71z"/>
	<path class="st3" d="M51.26,712.8c-18.27-36.28,13.25-74.44,42.68-84.92c42.71-11.14,74.42,12,84.92,42.68
		c14.66,33.5-7.67,78.1-42.68,84.92C100.12,767.87,66.55,741.41,51.26,712.8z"/>
	<path class="st3" d="M-44.71,608.33c-5.87-11.66,4.26-23.93,13.72-27.29c13.73-3.58,23.92,3.86,27.29,13.72
		c4.71,10.77-2.46,25.1-13.72,27.29C-29.01,626.03-39.8,617.52-44.71,608.33z"/>
	<g class="st4">
		<line class="st5" x1="175.22" y1="724.69" x2="277.5" y2="783.5"/>
		<line class="st6" x1="175.22" y1="724.69" x2="277.5" y2="783.5"/>
	</g>
	<line class="st7" x1="152.84" y1="636.09" x2="192.9" y2="520.5"/>
	<line class="st7" x1="62.57" y1="728.82" x2="-48.3" y2="794.58"/>
	<line class="st7" x1="58.17" y1="655.43" x2="-5.26" y2="612.63"/>
</g>
<g>
	<path class="st3" d="M824.9,78.21c7.36-10.55,22.74-7.51,30.08-0.89c9.53,10.22,7.86,22.54,0.89,30.08
		c-7.13,9.13-22.91,9.62-30.08,0.89C816.91,100.11,819.23,86.77,824.9,78.21z"/>
	<path class="st3" d="M578.76-9.57c5.13-7.36,15.86-5.24,20.98-0.62c6.65,7.13,5.48,15.72,0.62,20.98
		c-4.97,6.37-15.98,6.71-20.98,0.62C573.19,5.71,574.81-3.6,578.76-9.57z"/>
	<path class="st3" d="M657.36,71.53c15.97-22.9,49.34-16.31,65.28-1.93c20.69,22.19,17.05,48.92,1.93,65.28
		c-15.47,19.81-49.73,20.87-65.28,1.93C640.02,119.07,645.06,90.12,657.36,71.53z"/>
	<path class="st3" d="M583.68,332.19c8.32-11.93,25.71-8.5,34.02-1.01c10.78,11.56,8.89,25.49,1.01,34.02
		c-8.06,10.32-25.92,10.88-34.02,1.01C574.64,356.96,577.26,341.88,583.68,332.19z"/>
	<path class="st3" d="M689.18-20.62c5.13-7.36,15.86-5.24,20.98-0.62c6.65,7.13,5.48,15.72,0.62,20.98
		c-4.97,6.37-15.98,6.71-20.98,0.62C683.6-5.34,685.22-14.64,689.18-20.62z"/>
	<g class="st4">
		<line class="st5" x1="675.14" y1="148.03" x2="609.54" y2="326.35"/>
		<line class="st6" x1="675.14" y1="148.03" x2="609.54" y2="326.35"/>
	</g>
	<line class="st7" x1="736.92" y1="107.9" x2="819.89" y2="94.37"/>
	<line class="st7" x1="651.37" y1="83.61" x2="600.24" y2="10.42"/>
	<line class="st7" x1="694.31" y1="56.98" x2="699.46" y2="4.64"/>
</g>
<g class="st4">
	<line class="st5" x1="210.5" y1="281.5" x2="-0.5" y2="342.5"/>
	<line class="st6" x1="210.5" y1="281.5" x2="-0.5" y2="342.5"/>
</g>
</svg>
